<?xml version="1.0" encoding="utf-8"?>
<!-- Generator: Adobe Illustrator 26.0.2, SVG Export Plug-In . SVG Version: 6.00 Build 0)  -->
<svg version="1.1" id="Layer_1" xmlns="http://www.w3.org/2000/svg" xmlns:xlink="http://www.w3.org/1999/xlink" x="0px" y="0px"
	 viewBox="0 0 192 192" style="enable-background:new 0 0 192 192;" xml:space="preserve">
<style type="text/css">
	.st0{fill:#7FB73B;}
	.st1{fill:#00CD62;}
	.st2{fill:#FF831B;}
	.st3{fill:#FF6B11;}
</style>
<g>
	<path class="st0" d="M62.9,47.1c-1.8,1.5-4.5,1.2-6-0.7c0,0-16.6-17.3-21.8-23.3c-3.4-4-2.6-10,1.5-13.3l0,0
		c4.1-3.3,10.8-1.9,13.9,2.3c4.6,6.5,16.4,26.3,16.4,26.3c1.5,1.8,1.2,4.5-0.7,6L62.9,47.1L62.9,47.1z"/>
	<path class="st1" d="M53.5,55.5c-2.1,2.4-5.7,2.7-8.2,0.7c0,0-26.7-18.7-35.2-25.4c-5.6-4.4-6.1-12.7-1.5-18.1l0,0
		c4.6-5.4,13-6.4,18.1-1.5C34.7,18.7,56.6,43,56.6,43c2.4,2.1,2.7,5.7,0.7,8.2L53.5,55.5L53.5,55.5z"/>
	<path class="st0" d="M60.3,71.5c-1.3,2.9-4.7,4.2-7.6,2.9c0,0-30.9-10.4-40.9-14.5c-6.6-2.6-9.4-10.5-6.5-17l0,0
		c2.9-6.5,10.7-9.8,17-6.5c9.7,5,37.5,22.1,37.5,22.1c2.9,1.3,4.2,4.7,2.9,7.6L60.3,71.5L60.3,71.5z"/>
	<path class="st2" d="M157.9,184.6c19.5,9.5,37.7-4.1,26.8-26.5L134.5,49.4C122.3,22,90,12.7,69.2,33.6L36.8,66.1
		c-26.7,27.9-10.3,53.5,15.7,65.8L157.9,184.6L157.9,184.6z"/>
	<path class="st3" d="M100.2,94.3c3.1,3.1,8.2,3.1,11.3-0.1l29.9-29.8l-7.2-15.5l-34,34C97.1,86.1,97.1,91.1,100.2,94.3L100.2,94.3z
		"/>
	<path class="st3" d="M138.6,138.1c3.1,3.1,8.2,3.1,11.4-0.1l17.5-17.4l-7.2-15.5l-21.7,21.6C135.4,130,135.4,135,138.6,138.1
		L138.6,138.1z"/>
	<path class="st3" d="M110.9,125.9c-3.1-3.1-8.2-3.1-11.3,0L80,145.6l15.1,7.6l15.9-15.9C114,134.1,114,129.1,110.9,125.9
		L110.9,125.9z"/>
</g>
</svg>
