<?xml version="1.0" encoding="utf-8"?>
<!-- Generator: Adobe Illustrator 26.0.2, SVG Export Plug-In . SVG Version: 6.00 Build 0)  -->
<svg version="1.1" xmlns="http://www.w3.org/2000/svg" xmlns:xlink="http://www.w3.org/1999/xlink" x="0px" y="0px"
	 viewBox="0 0 192 192" style="enable-background:new 0 0 192 192;" xml:space="preserve">
<style type="text/css">
	.st0{fill:none;}
	.st1{clip-path:url(#SVGID_00000038413149730695049600000005945533488166374586_);}
	.st2{fill:none;stroke:#000000;stroke-width:0.25;stroke-miterlimit:10;}
	.st3{opacity:0.4;}
	.st4{clip-path:url(#SVGID_00000016780324291596063920000005532037667293792901_);}
	.st5{fill:#DB4437;fill-opacity:0.4;}
	.st6{display:none;}
	.st7{display:inline;fill:#FBF9F6;}
	.st8{fill:#D48861;}
	.st9{fill:#E7A67D;}
	.st10{fill:#C9C2C0;}
	.st11{fill:#FFAE5C;}
	.st12{fill:#E98835;}
	.st13{fill:#F7973F;}
	.st14{fill:#7A4330;}
	.st15{fill:#FF2D2B;}
	.st16{fill:#D3D3D3;}
	.st17{fill:#00D262;}
	.st18{fill:#BBDEFB;}
	.st19{fill:#FAFAFA;}
	.st20{fill:#FFFFFF;}
	.st21{fill:#FFCE78;}
	.st22{fill:#FFEEC0;}
	.st23{fill:#FFB8AB;}
	.st24{fill-rule:evenodd;clip-rule:evenodd;fill:#F3F3F3;}
	.st25{fill:#FF4A3D;}
	.st26{fill:#D8304E;}
	.st27{fill:#BDBDBD;}
	.st28{fill:#FF821E;}
	.st29{fill:#FF6715;}
	.st30{fill:#F3F3F3;}
	.st31{fill:#EB034A;}
	.st32{fill:#FFDEA5;}
	.st33{fill:#9B9B9B;}
	.st34{fill:#97DDFF;}
	.st35{fill:#BEBEBE;}
	.st36{fill:#757575;}
	.st37{fill:#F9A825;}
	.st38{fill:#FFD54F;}
	.st39{enable-background:new    ;}
	.st40{clip-path:url(#SVGID_00000043416512023637819540000001745449553478203275_);fill:#D38761;}
	.st41{fill:#D38761;}
	.st42{clip-path:url(#SVGID_00000173123015198164632870000002287933788803721615_);fill:#D38761;}
	.st43{clip-path:url(#SVGID_00000171684218321990095690000013438030982896334237_);fill:#D38761;}
	.st44{clip-path:url(#SVGID_00000087377204501876382080000005438161710026947772_);fill:#D38761;}
	.st45{clip-path:url(#SVGID_00000165956894982803138630000007271158793786162565_);fill:#D38761;}
	.st46{clip-path:url(#SVGID_00000129200842666718544540000012364967595156849048_);fill:#D38761;}
	.st47{clip-path:url(#SVGID_00000012444024751389386260000009331205483620674433_);fill:#D38761;}
	.st48{clip-path:url(#SVGID_00000018213889474890133000000016790711330502693552_);fill:#D38761;}
	.st49{clip-path:url(#SVGID_00000107548855654865388760000003183588782408305059_);fill:#D38761;}
	.st50{fill:#FF8A80;}
	.st51{fill:none;stroke:#F4C6C6;stroke-width:6;stroke-linecap:round;stroke-miterlimit:10;}
	.st52{fill:#33691E;}
	.st53{fill:#66BB6A;}
	.st54{fill:#C5E1A5;stroke:#C5E1A5;stroke-width:6;stroke-linecap:round;stroke-miterlimit:10;}
	.st55{fill:#82B1FF;}
	.st56{fill:#FBF9F6;}
	.st57{fill:#D7CCC8;}
	.st58{fill:#A1887F;}
	.st59{fill:#BCAAA4;}
	.st60{fill:#FFCCBC;}
	.st61{fill:#FFE082;}
	.st62{fill:#FFB74D;}
	.st63{fill:#FBC02D;}
	.st64{fill:#FFE0B2;}
	.st65{fill:#5D4037;}
	.st66{fill:#FFAB91;}
	.st67{fill:#96D098;}
	.st68{fill:#DEEECB;}
	.st69{fill:#424242;}
	.st70{fill:#F1F8E9;}
	.st71{fill:#FFECB3;}
	.st72{fill:#B0BEC5;}
	.st73{fill:#E3F2FD;}
</style>
<symbol  id="material_x5F_product_x5F_icon_x5F_border" viewBox="0 -192 192 192">
	<rect y="-192" class="st0" width="192" height="192"/>
</symbol>
<symbol  id="material_x5F_product_x5F_icon_x5F_grid" viewBox="0 -192 192 192">
	<g>
		<defs>
			<rect id="SVGID_1_" x="0" y="-192" width="192" height="192"/>
		</defs>
		<clipPath id="SVGID_00000087373208539344473280000015862888519368344225_">
			<use xlink:href="#SVGID_1_"  style="overflow:visible;"/>
		</clipPath>
		<g style="clip-path:url(#SVGID_00000087373208539344473280000015862888519368344225_);">
			<g>
				<line class="st2" x1="4" y1="-192" x2="4" y2="0"/>
				<line class="st2" x1="8" y1="-192" x2="8" y2="0"/>
				<line class="st2" x1="12" y1="-192" x2="12" y2="0"/>
				<line class="st2" x1="16" y1="-192" x2="16" y2="0"/>
				<line class="st2" x1="20" y1="-192" x2="20" y2="0"/>
				<line class="st2" x1="24" y1="-192" x2="24" y2="0"/>
				<line class="st2" x1="28" y1="-192" x2="28" y2="0"/>
				<line class="st2" x1="32" y1="-192" x2="32" y2="0"/>
				<line class="st2" x1="36" y1="-192" x2="36" y2="0"/>
				<line class="st2" x1="40" y1="-192" x2="40" y2="0"/>
				<line class="st2" x1="44" y1="-192" x2="44" y2="0"/>
				<line class="st2" x1="48" y1="-192" x2="48" y2="0"/>
				<line class="st2" x1="52" y1="-192" x2="52" y2="0"/>
				<line class="st2" x1="56" y1="-192" x2="56" y2="0"/>
				<line class="st2" x1="60" y1="-192" x2="60" y2="0"/>
				<line class="st2" x1="64" y1="-192" x2="64" y2="0"/>
				<line class="st2" x1="68" y1="-192" x2="68" y2="0"/>
				<line class="st2" x1="72" y1="-192" x2="72" y2="0"/>
				<line class="st2" x1="76" y1="-192" x2="76" y2="0"/>
				<line class="st2" x1="80" y1="-192" x2="80" y2="0"/>
				<line class="st2" x1="84" y1="-192" x2="84" y2="0"/>
				<line class="st2" x1="88" y1="-192" x2="88" y2="0"/>
				<line class="st2" x1="92" y1="-192" x2="92" y2="0"/>
				<line class="st2" x1="96" y1="-192" x2="96" y2="0"/>
				<line class="st2" x1="100" y1="-192" x2="100" y2="0"/>
				<line class="st2" x1="104" y1="-192" x2="104" y2="0"/>
				<line class="st2" x1="108" y1="-192" x2="108" y2="0"/>
				<line class="st2" x1="112" y1="-192" x2="112" y2="0"/>
				<line class="st2" x1="116" y1="-192" x2="116" y2="0"/>
				<line class="st2" x1="120" y1="-192" x2="120" y2="0"/>
				<line class="st2" x1="124" y1="-192" x2="124" y2="0"/>
				<line class="st2" x1="128" y1="-192" x2="128" y2="0"/>
				<line class="st2" x1="132" y1="-192" x2="132" y2="0"/>
				<line class="st2" x1="136" y1="-192" x2="136" y2="0"/>
				<line class="st2" x1="140" y1="-192" x2="140" y2="0"/>
				<line class="st2" x1="144" y1="-192" x2="144" y2="0"/>
				<line class="st2" x1="148" y1="-192" x2="148" y2="0"/>
				<line class="st2" x1="152" y1="-192" x2="152" y2="0"/>
				<line class="st2" x1="156" y1="-192" x2="156" y2="0"/>
				<line class="st2" x1="160" y1="-192" x2="160" y2="0"/>
				<line class="st2" x1="164" y1="-192" x2="164" y2="0"/>
				<line class="st2" x1="168" y1="-192" x2="168" y2="0"/>
				<line class="st2" x1="172" y1="-192" x2="172" y2="0"/>
				<line class="st2" x1="176" y1="-192" x2="176" y2="0"/>
				<line class="st2" x1="180" y1="-192" x2="180" y2="0"/>
				<line class="st2" x1="184" y1="-192" x2="184" y2="0"/>
				<line class="st2" x1="188" y1="-192" x2="188" y2="0"/>
			</g>
			<g>
				<line class="st2" x1="0" y1="-4" x2="192" y2="-4"/>
				<line class="st2" x1="0" y1="-8" x2="192" y2="-8"/>
				<line class="st2" x1="0" y1="-12" x2="192" y2="-12"/>
				<line class="st2" x1="0" y1="-16" x2="192" y2="-16"/>
				<line class="st2" x1="0" y1="-20" x2="192" y2="-20"/>
				<line class="st2" x1="0" y1="-24" x2="192" y2="-24"/>
				<line class="st2" x1="0" y1="-28" x2="192" y2="-28"/>
				<line class="st2" x1="0" y1="-32" x2="192" y2="-32"/>
				<line class="st2" x1="0" y1="-36" x2="192" y2="-36"/>
				<line class="st2" x1="0" y1="-40" x2="192" y2="-40"/>
				<line class="st2" x1="0" y1="-44" x2="192" y2="-44"/>
				<line class="st2" x1="0" y1="-48" x2="192" y2="-48"/>
				<line class="st2" x1="0" y1="-52" x2="192" y2="-52"/>
				<line class="st2" x1="0" y1="-56" x2="192" y2="-56"/>
				<line class="st2" x1="0" y1="-60" x2="192" y2="-60"/>
				<line class="st2" x1="0" y1="-64" x2="192" y2="-64"/>
				<line class="st2" x1="0" y1="-68" x2="192" y2="-68"/>
				<line class="st2" x1="0" y1="-72" x2="192" y2="-72"/>
				<line class="st2" x1="0" y1="-76" x2="192" y2="-76"/>
				<line class="st2" x1="0" y1="-80" x2="192" y2="-80"/>
				<line class="st2" x1="0" y1="-84" x2="192" y2="-84"/>
				<line class="st2" x1="0" y1="-88" x2="192" y2="-88"/>
				<line class="st2" x1="0" y1="-92" x2="192" y2="-92"/>
				<line class="st2" x1="0" y1="-96" x2="192" y2="-96"/>
				<line class="st2" x1="0" y1="-100" x2="192" y2="-100"/>
				<line class="st2" x1="0" y1="-104" x2="192" y2="-104"/>
				<line class="st2" x1="0" y1="-108" x2="192" y2="-108"/>
				<line class="st2" x1="0" y1="-112" x2="192" y2="-112"/>
				<line class="st2" x1="0" y1="-116" x2="192" y2="-116"/>
				<line class="st2" x1="0" y1="-120" x2="192" y2="-120"/>
				<line class="st2" x1="0" y1="-124" x2="192" y2="-124"/>
				<line class="st2" x1="0" y1="-128" x2="192" y2="-128"/>
				<line class="st2" x1="0" y1="-132" x2="192" y2="-132"/>
				<line class="st2" x1="0" y1="-136" x2="192" y2="-136"/>
				<line class="st2" x1="0" y1="-140" x2="192" y2="-140"/>
				<line class="st2" x1="0" y1="-144" x2="192" y2="-144"/>
				<line class="st2" x1="0" y1="-148" x2="192" y2="-148"/>
				<line class="st2" x1="0" y1="-152" x2="192" y2="-152"/>
				<line class="st2" x1="0" y1="-156" x2="192" y2="-156"/>
				<line class="st2" x1="0" y1="-160" x2="192" y2="-160"/>
				<line class="st2" x1="0" y1="-164" x2="192" y2="-164"/>
				<line class="st2" x1="0" y1="-168" x2="192" y2="-168"/>
				<line class="st2" x1="0" y1="-172" x2="192" y2="-172"/>
				<line class="st2" x1="0" y1="-176" x2="192" y2="-176"/>
				<line class="st2" x1="0" y1="-180" x2="192" y2="-180"/>
				<line class="st2" x1="0" y1="-184" x2="192" y2="-184"/>
				<line class="st2" x1="0" y1="-188" x2="192" y2="-188"/>
			</g>
			<g>
				<path d="M191.75-0.25v-191.5H0.25v191.5H191.75 M192,0H0v-192h192V0L192,0z"/>
			</g>
		</g>
	</g>
</symbol>
<symbol  id="material_x5F_product_x5F_icon_x5F_keylines" viewBox="0 -192 192 192">
	<g class="st3">
		<defs>
			<path id="SVGID_00000020381810382714273300000017236877883045732531_" class="st3" d="M0,0v-192h192V0H0z"/>
		</defs>
		<clipPath id="SVGID_00000034070169025551879680000006494357426789466555_">
			<use xlink:href="#SVGID_00000020381810382714273300000017236877883045732531_"  style="overflow:visible;"/>
		</clipPath>
		<g style="clip-path:url(#SVGID_00000034070169025551879680000006494357426789466555_);">
			<line class="st2" x1="0.25" y1="-0.25" x2="191.75" y2="-191.75"/>
			<g>
				<path d="M191.75-0.25v-191.5H0.25v191.5H191.75 M192,0H0v-192h192V0L192,0z"/>
			</g>
			<line class="st2" x1="191.75" y1="-0.25" x2="0.25" y2="-191.75"/>
			<line class="st2" x1="124" y1="0" x2="124" y2="-192"/>
			<line class="st2" x1="68" y1="0" x2="68" y2="-192"/>
			<line class="st2" x1="192" y1="-124" x2="0" y2="-124"/>
			<line class="st2" x1="192" y1="-68" x2="0" y2="-68"/>
			<circle class="st2" cx="96" cy="-96" r="40"/>
			<line class="st2" x1="0" y1="-96" x2="192" y2="-96"/>
			<line class="st2" x1="96" y1="0" x2="96" y2="-192"/>
		</g>
		<g style="clip-path:url(#SVGID_00000034070169025551879680000006494357426789466555_);">
			<g>
				<path d="M96-8.25c48.39,0,87.75-39.36,87.75-87.75S144.39-183.75,96-183.75S8.25-144.39,8.25-96S47.61-8.25,96-8.25 M96-8
					C47.4-8,8-47.4,8-96s39.4-88,88-88c48.6,0,88,39.4,88,88S144.6-8,96-8L96-8z"/>
			</g>
		</g>
		<g style="clip-path:url(#SVGID_00000034070169025551879680000006494357426789466555_);">
			<g>
				<path d="M160-20.25c6.48,0,11.75-5.27,11.75-11.75v-128c0-6.48-5.27-11.75-11.75-11.75H32c-6.48,0-11.75,5.27-11.75,11.75v128
					c0,6.48,5.27,11.75,11.75,11.75H160 M160-20H32c-6.6,0-12-5.4-12-12v-128c0-6.6,5.4-12,12-12h128c6.6,0,12,5.4,12,12v128
					C172-25.4,166.6-20,160-20L160-20z"/>
			</g>
		</g>
		<g style="clip-path:url(#SVGID_00000034070169025551879680000006494357426789466555_);">
			<g>
				<path d="M148-8.25c6.48,0,11.75-5.27,11.75-11.75v-152c0-6.48-5.27-11.75-11.75-11.75H44c-6.48,0-11.75,5.27-11.75,11.75v152
					c0,6.48,5.27,11.75,11.75,11.75H148 M148-8H44c-6.6,0-12-5.4-12-12v-152c0-6.6,5.4-12,12-12h104c6.6,0,12,5.4,12,12v152
					C160-13.4,154.6-8,148-8L148-8z"/>
			</g>
		</g>
		<g style="clip-path:url(#SVGID_00000034070169025551879680000006494357426789466555_);">
			<g>
				<path d="M172-32.25c6.48,0,11.75-5.27,11.75-11.75v-104c0-6.48-5.27-11.75-11.75-11.75H20c-6.48,0-11.75,5.27-11.75,11.75v104
					c0,6.48,5.27,11.75,11.75,11.75H172 M172-32H20c-6.6,0-12-5.4-12-12v-104c0-6.6,5.4-12,12-12h152c6.6,0,12,5.4,12,12v104
					C184-37.4,178.6-32,172-32L172-32z"/>
			</g>
		</g>
	</g>
</symbol>
<symbol  id="material_x5F_product_x5F_icon_x5F_trim" viewBox="0 -192 192 192">
	<path class="st5" d="M0,0v-192h192V0H0z M188-188H4V-4h184V-188z"/>
</symbol>
<g id="background" class="st6">
	<rect x="0" y="0" class="st7" width="192" height="192"/>
</g>
<g id="border" class="st6">
	
		<use xlink:href="#material_x5F_product_x5F_icon_x5F_border"  width="192" height="192" y="-192" transform="matrix(1 0 0 -1 0 0)" style="display:inline;overflow:visible;"/>
</g>
<g id="grid" class="st6">
	
		<use xlink:href="#material_x5F_product_x5F_icon_x5F_grid"  width="192" height="192" id="XMLID_00000087379241609034139630000004347903942251053968_" x="0" y="-192" transform="matrix(1 0 0 -1 0 0)" style="display:inline;overflow:visible;opacity:0.15;"/>
</g>
<g id="keylines" class="st6">
	
		<use xlink:href="#material_x5F_product_x5F_icon_x5F_keylines"  width="192" height="192" x="0" y="-192" transform="matrix(1 0 0 -1 0 0)" style="display:inline;overflow:visible;"/>
</g>
<g id="trim_area" class="st6">
	
		<use xlink:href="#material_x5F_product_x5F_icon_x5F_trim"  width="192" height="192" id="XMLID_00000101795464515303310230000003115916526157488815_" y="-192" transform="matrix(1 0 0 -1 0 0)" style="display:inline;overflow:visible;"/>
</g>
<g id="icon">
	<path class="st18" d="M134.53,188h-77.5c-7.05,0-12.93-4.8-13.58-11.08L27.11,17.3C26.38,10.16,32.66,4,40.68,4h110.2
		c8.02,0,14.31,6.16,13.58,13.3l-16.35,159.62C147.47,183.2,141.58,188,134.53,188z"/>
	<path class="st55" d="M126.74,161.75H64.83c-6.59,0-12.11-4.47-12.76-10.34l-9.18-82.94c-0.75-6.75,5.18-12.59,12.76-12.59h80.27
		c7.58,0,13.51,5.85,12.76,12.59l-9.18,82.94C138.85,157.28,133.33,161.75,126.74,161.75z"/>
	<path class="st55" d="M132.1,180.43H59.46c-1.84,0-3.41-1.18-3.74-2.79l-1-4.96c-0.42-2.08,1.37-4,3.74-4h74.64
		c2.37,0,4.16,1.92,3.74,4l-1,4.96C135.51,179.26,133.94,180.43,132.1,180.43z"/>
	<circle class="st56" cx="119.33" cy="98.53" r="12.37"/>
	<circle class="st56" cx="94.59" cy="125.12" r="6.59"/>
	<circle class="st56" cx="120.49" cy="139.95" r="8.24"/>
</g>
</svg>
