<?xml version="1.0" encoding="utf-8"?>
<!-- Generator: Adobe Illustrator 26.0.2, SVG Export Plug-In . SVG Version: 6.00 Build 0)  -->
<svg version="1.1" xmlns="http://www.w3.org/2000/svg" xmlns:xlink="http://www.w3.org/1999/xlink" x="0px" y="0px"
	 viewBox="0 0 192 192" style="enable-background:new 0 0 192 192;" xml:space="preserve">
<style type="text/css">
	.st0{fill:none;}
	.st1{clip-path:url(#SVGID_00000153699424486738416460000005837818539473923519_);}
	.st2{fill:none;stroke:#000000;stroke-width:0.25;stroke-miterlimit:10;}
	.st3{opacity:0.4;}
	.st4{clip-path:url(#SVGID_00000093145729561715479640000002036134408175466932_);}
	.st5{fill:#DB4437;fill-opacity:0.4;}
	.st6{display:none;}
	.st7{display:inline;fill:#FBF9F6;}
	.st8{fill:#D48861;}
	.st9{fill:#E7A67D;}
	.st10{fill:#C9C2C0;}
	.st11{fill:#FFAE5C;}
	.st12{fill:#E98835;}
	.st13{fill:#F7973F;}
	.st14{fill:#7A4330;}
	.st15{fill:#FF2D2B;}
	.st16{fill:#D3D3D3;}
	.st17{fill:#00D262;}
	.st18{fill:#BBDEFB;}
	.st19{fill:#FAFAFA;}
	.st20{fill:#FFFFFF;}
	.st21{fill:#FFCE78;}
	.st22{fill:#FFEEC0;}
	.st23{fill:#FFB8AB;}
	.st24{fill-rule:evenodd;clip-rule:evenodd;fill:#F3F3F3;}
	.st25{fill:#FF4A3D;}
	.st26{fill:#D8304E;}
	.st27{fill:#BDBDBD;}
	.st28{fill:#FF821E;}
	.st29{fill:#FF6715;}
	.st30{fill:#F3F3F3;}
	.st31{fill:#EB034A;}
	.st32{fill:#FFDEA5;}
	.st33{fill:#9B9B9B;}
	.st34{fill:#97DDFF;}
	.st35{fill:#BEBEBE;}
	.st36{fill:#757575;}
	.st37{fill:#F9A825;}
	.st38{fill:#FFD54F;}
	.st39{enable-background:new    ;}
	.st40{clip-path:url(#SVGID_00000125594344514720955520000006345116196778470035_);fill:#D38761;}
	.st41{fill:#D38761;}
	.st42{clip-path:url(#SVGID_00000001644435407006623590000007304680862922266522_);fill:#D38761;}
	.st43{clip-path:url(#SVGID_00000017488074789006338790000013142065988238927543_);fill:#D38761;}
	.st44{clip-path:url(#SVGID_00000136409777722000582460000004382266645454085267_);fill:#D38761;}
	.st45{clip-path:url(#SVGID_00000178174980487453705750000004026638220238314906_);fill:#D38761;}
	.st46{clip-path:url(#SVGID_00000072276299528652373260000018232654769949850251_);fill:#D38761;}
	.st47{clip-path:url(#SVGID_00000158707368162284075970000004564593091260554923_);fill:#D38761;}
	.st48{clip-path:url(#SVGID_00000118384284190559802860000009852898614362514348_);fill:#D38761;}
	.st49{clip-path:url(#SVGID_00000085213369435414949270000002136220804398243498_);fill:#D38761;}
	.st50{fill:#FF8A80;}
	.st51{fill:none;stroke:#F4C6C6;stroke-width:6;stroke-linecap:round;stroke-miterlimit:10;}
	.st52{fill:#33691E;}
	.st53{fill:#66BB6A;}
	.st54{fill:#C5E1A5;stroke:#C5E1A5;stroke-width:6;stroke-linecap:round;stroke-miterlimit:10;}
	.st55{fill:#82B1FF;}
	.st56{fill:#FBF9F6;}
	.st57{fill:#D7CCC8;}
	.st58{fill:#A1887F;}
	.st59{fill:#BCAAA4;}
	.st60{fill:#FFCCBC;}
	.st61{fill:#FFE082;}
	.st62{fill:#FFB74D;}
	.st63{fill:#FBC02D;}
	.st64{fill:#FFE0B2;}
	.st65{fill:#5D4037;}
	.st66{fill:#FFAB91;}
	.st67{fill:#96D098;}
	.st68{fill:#DEEECB;}
	.st69{fill:#424242;}
	.st70{fill:#F1F8E9;}
	.st71{fill:#FFECB3;}
	.st72{fill:#B0BEC5;}
	.st73{fill:#E3F2FD;}
</style>
<symbol  id="material_x5F_product_x5F_icon_x5F_border" viewBox="0 -192 192 192">
	<rect y="-192" class="st0" width="192" height="192"/>
</symbol>
<symbol  id="material_x5F_product_x5F_icon_x5F_grid" viewBox="0 -192 192 192">
	<g>
		<defs>
			<rect id="SVGID_1_" x="0" y="-192" width="192" height="192"/>
		</defs>
		<clipPath id="SVGID_00000027568216855595813810000008064836822829673358_">
			<use xlink:href="#SVGID_1_"  style="overflow:visible;"/>
		</clipPath>
		<g style="clip-path:url(#SVGID_00000027568216855595813810000008064836822829673358_);">
			<g>
				<line class="st2" x1="4" y1="-192" x2="4" y2="0"/>
				<line class="st2" x1="8" y1="-192" x2="8" y2="0"/>
				<line class="st2" x1="12" y1="-192" x2="12" y2="0"/>
				<line class="st2" x1="16" y1="-192" x2="16" y2="0"/>
				<line class="st2" x1="20" y1="-192" x2="20" y2="0"/>
				<line class="st2" x1="24" y1="-192" x2="24" y2="0"/>
				<line class="st2" x1="28" y1="-192" x2="28" y2="0"/>
				<line class="st2" x1="32" y1="-192" x2="32" y2="0"/>
				<line class="st2" x1="36" y1="-192" x2="36" y2="0"/>
				<line class="st2" x1="40" y1="-192" x2="40" y2="0"/>
				<line class="st2" x1="44" y1="-192" x2="44" y2="0"/>
				<line class="st2" x1="48" y1="-192" x2="48" y2="0"/>
				<line class="st2" x1="52" y1="-192" x2="52" y2="0"/>
				<line class="st2" x1="56" y1="-192" x2="56" y2="0"/>
				<line class="st2" x1="60" y1="-192" x2="60" y2="0"/>
				<line class="st2" x1="64" y1="-192" x2="64" y2="0"/>
				<line class="st2" x1="68" y1="-192" x2="68" y2="0"/>
				<line class="st2" x1="72" y1="-192" x2="72" y2="0"/>
				<line class="st2" x1="76" y1="-192" x2="76" y2="0"/>
				<line class="st2" x1="80" y1="-192" x2="80" y2="0"/>
				<line class="st2" x1="84" y1="-192" x2="84" y2="0"/>
				<line class="st2" x1="88" y1="-192" x2="88" y2="0"/>
				<line class="st2" x1="92" y1="-192" x2="92" y2="0"/>
				<line class="st2" x1="96" y1="-192" x2="96" y2="0"/>
				<line class="st2" x1="100" y1="-192" x2="100" y2="0"/>
				<line class="st2" x1="104" y1="-192" x2="104" y2="0"/>
				<line class="st2" x1="108" y1="-192" x2="108" y2="0"/>
				<line class="st2" x1="112" y1="-192" x2="112" y2="0"/>
				<line class="st2" x1="116" y1="-192" x2="116" y2="0"/>
				<line class="st2" x1="120" y1="-192" x2="120" y2="0"/>
				<line class="st2" x1="124" y1="-192" x2="124" y2="0"/>
				<line class="st2" x1="128" y1="-192" x2="128" y2="0"/>
				<line class="st2" x1="132" y1="-192" x2="132" y2="0"/>
				<line class="st2" x1="136" y1="-192" x2="136" y2="0"/>
				<line class="st2" x1="140" y1="-192" x2="140" y2="0"/>
				<line class="st2" x1="144" y1="-192" x2="144" y2="0"/>
				<line class="st2" x1="148" y1="-192" x2="148" y2="0"/>
				<line class="st2" x1="152" y1="-192" x2="152" y2="0"/>
				<line class="st2" x1="156" y1="-192" x2="156" y2="0"/>
				<line class="st2" x1="160" y1="-192" x2="160" y2="0"/>
				<line class="st2" x1="164" y1="-192" x2="164" y2="0"/>
				<line class="st2" x1="168" y1="-192" x2="168" y2="0"/>
				<line class="st2" x1="172" y1="-192" x2="172" y2="0"/>
				<line class="st2" x1="176" y1="-192" x2="176" y2="0"/>
				<line class="st2" x1="180" y1="-192" x2="180" y2="0"/>
				<line class="st2" x1="184" y1="-192" x2="184" y2="0"/>
				<line class="st2" x1="188" y1="-192" x2="188" y2="0"/>
			</g>
			<g>
				<line class="st2" x1="0" y1="-4" x2="192" y2="-4"/>
				<line class="st2" x1="0" y1="-8" x2="192" y2="-8"/>
				<line class="st2" x1="0" y1="-12" x2="192" y2="-12"/>
				<line class="st2" x1="0" y1="-16" x2="192" y2="-16"/>
				<line class="st2" x1="0" y1="-20" x2="192" y2="-20"/>
				<line class="st2" x1="0" y1="-24" x2="192" y2="-24"/>
				<line class="st2" x1="0" y1="-28" x2="192" y2="-28"/>
				<line class="st2" x1="0" y1="-32" x2="192" y2="-32"/>
				<line class="st2" x1="0" y1="-36" x2="192" y2="-36"/>
				<line class="st2" x1="0" y1="-40" x2="192" y2="-40"/>
				<line class="st2" x1="0" y1="-44" x2="192" y2="-44"/>
				<line class="st2" x1="0" y1="-48" x2="192" y2="-48"/>
				<line class="st2" x1="0" y1="-52" x2="192" y2="-52"/>
				<line class="st2" x1="0" y1="-56" x2="192" y2="-56"/>
				<line class="st2" x1="0" y1="-60" x2="192" y2="-60"/>
				<line class="st2" x1="0" y1="-64" x2="192" y2="-64"/>
				<line class="st2" x1="0" y1="-68" x2="192" y2="-68"/>
				<line class="st2" x1="0" y1="-72" x2="192" y2="-72"/>
				<line class="st2" x1="0" y1="-76" x2="192" y2="-76"/>
				<line class="st2" x1="0" y1="-80" x2="192" y2="-80"/>
				<line class="st2" x1="0" y1="-84" x2="192" y2="-84"/>
				<line class="st2" x1="0" y1="-88" x2="192" y2="-88"/>
				<line class="st2" x1="0" y1="-92" x2="192" y2="-92"/>
				<line class="st2" x1="0" y1="-96" x2="192" y2="-96"/>
				<line class="st2" x1="0" y1="-100" x2="192" y2="-100"/>
				<line class="st2" x1="0" y1="-104" x2="192" y2="-104"/>
				<line class="st2" x1="0" y1="-108" x2="192" y2="-108"/>
				<line class="st2" x1="0" y1="-112" x2="192" y2="-112"/>
				<line class="st2" x1="0" y1="-116" x2="192" y2="-116"/>
				<line class="st2" x1="0" y1="-120" x2="192" y2="-120"/>
				<line class="st2" x1="0" y1="-124" x2="192" y2="-124"/>
				<line class="st2" x1="0" y1="-128" x2="192" y2="-128"/>
				<line class="st2" x1="0" y1="-132" x2="192" y2="-132"/>
				<line class="st2" x1="0" y1="-136" x2="192" y2="-136"/>
				<line class="st2" x1="0" y1="-140" x2="192" y2="-140"/>
				<line class="st2" x1="0" y1="-144" x2="192" y2="-144"/>
				<line class="st2" x1="0" y1="-148" x2="192" y2="-148"/>
				<line class="st2" x1="0" y1="-152" x2="192" y2="-152"/>
				<line class="st2" x1="0" y1="-156" x2="192" y2="-156"/>
				<line class="st2" x1="0" y1="-160" x2="192" y2="-160"/>
				<line class="st2" x1="0" y1="-164" x2="192" y2="-164"/>
				<line class="st2" x1="0" y1="-168" x2="192" y2="-168"/>
				<line class="st2" x1="0" y1="-172" x2="192" y2="-172"/>
				<line class="st2" x1="0" y1="-176" x2="192" y2="-176"/>
				<line class="st2" x1="0" y1="-180" x2="192" y2="-180"/>
				<line class="st2" x1="0" y1="-184" x2="192" y2="-184"/>
				<line class="st2" x1="0" y1="-188" x2="192" y2="-188"/>
			</g>
			<g>
				<path d="M191.75-0.25v-191.5H0.25v191.5H191.75 M192,0H0v-192h192V0L192,0z"/>
			</g>
		</g>
	</g>
</symbol>
<symbol  id="material_x5F_product_x5F_icon_x5F_keylines" viewBox="0 -192 192 192">
	<g class="st3">
		<defs>
			<path id="SVGID_00000020381810382714273300000017236877883045732531_" class="st3" d="M0,0v-192h192V0H0z"/>
		</defs>
		<clipPath id="SVGID_00000106869302119777593990000003186731258595388571_">
			<use xlink:href="#SVGID_00000020381810382714273300000017236877883045732531_"  style="overflow:visible;"/>
		</clipPath>
		<g style="clip-path:url(#SVGID_00000106869302119777593990000003186731258595388571_);">
			<line class="st2" x1="0.25" y1="-0.25" x2="191.75" y2="-191.75"/>
			<g>
				<path d="M191.75-0.25v-191.5H0.25v191.5H191.75 M192,0H0v-192h192V0L192,0z"/>
			</g>
			<line class="st2" x1="191.75" y1="-0.25" x2="0.25" y2="-191.75"/>
			<line class="st2" x1="124" y1="0" x2="124" y2="-192"/>
			<line class="st2" x1="68" y1="0" x2="68" y2="-192"/>
			<line class="st2" x1="192" y1="-124" x2="0" y2="-124"/>
			<line class="st2" x1="192" y1="-68" x2="0" y2="-68"/>
			<circle class="st2" cx="96" cy="-96" r="40"/>
			<line class="st2" x1="0" y1="-96" x2="192" y2="-96"/>
			<line class="st2" x1="96" y1="0" x2="96" y2="-192"/>
		</g>
		<g style="clip-path:url(#SVGID_00000106869302119777593990000003186731258595388571_);">
			<g>
				<path d="M96-8.25c48.39,0,87.75-39.36,87.75-87.75S144.39-183.75,96-183.75S8.25-144.39,8.25-96S47.61-8.25,96-8.25 M96-8
					C47.4-8,8-47.4,8-96s39.4-88,88-88c48.6,0,88,39.4,88,88S144.6-8,96-8L96-8z"/>
			</g>
		</g>
		<g style="clip-path:url(#SVGID_00000106869302119777593990000003186731258595388571_);">
			<g>
				<path d="M160-20.25c6.48,0,11.75-5.27,11.75-11.75v-128c0-6.48-5.27-11.75-11.75-11.75H32c-6.48,0-11.75,5.27-11.75,11.75v128
					c0,6.48,5.27,11.75,11.75,11.75H160 M160-20H32c-6.6,0-12-5.4-12-12v-128c0-6.6,5.4-12,12-12h128c6.6,0,12,5.4,12,12v128
					C172-25.4,166.6-20,160-20L160-20z"/>
			</g>
		</g>
		<g style="clip-path:url(#SVGID_00000106869302119777593990000003186731258595388571_);">
			<g>
				<path d="M148-8.25c6.48,0,11.75-5.27,11.75-11.75v-152c0-6.48-5.27-11.75-11.75-11.75H44c-6.48,0-11.75,5.27-11.75,11.75v152
					c0,6.48,5.27,11.75,11.75,11.75H148 M148-8H44c-6.6,0-12-5.4-12-12v-152c0-6.6,5.4-12,12-12h104c6.6,0,12,5.4,12,12v152
					C160-13.4,154.6-8,148-8L148-8z"/>
			</g>
		</g>
		<g style="clip-path:url(#SVGID_00000106869302119777593990000003186731258595388571_);">
			<g>
				<path d="M172-32.25c6.48,0,11.75-5.27,11.75-11.75v-104c0-6.48-5.27-11.75-11.75-11.75H20c-6.48,0-11.75,5.27-11.75,11.75v104
					c0,6.48,5.27,11.75,11.75,11.75H172 M172-32H20c-6.6,0-12-5.4-12-12v-104c0-6.6,5.4-12,12-12h152c6.6,0,12,5.4,12,12v104
					C184-37.4,178.6-32,172-32L172-32z"/>
			</g>
		</g>
	</g>
</symbol>
<symbol  id="material_x5F_product_x5F_icon_x5F_trim" viewBox="0 -192 192 192">
	<path class="st5" d="M0,0v-192h192V0H0z M188-188H4V-4h184V-188z"/>
</symbol>
<g id="background" class="st6">
	<rect x="0" y="0" class="st7" width="192" height="192"/>
	<rect x="0" y="0" class="st7" width="192" height="192"/>
</g>
<g id="border" class="st6">
	
		<use xlink:href="#material_x5F_product_x5F_icon_x5F_border"  width="192" height="192" y="-192" transform="matrix(1 0 0 -1 0 9.094947e-13)" style="display:inline;overflow:visible;"/>
</g>
<g id="grid" class="st6">
	
		<use xlink:href="#material_x5F_product_x5F_icon_x5F_grid"  width="192" height="192" id="XMLID_00000025406287973645969990000010130639108321027214_" x="0" y="-192" transform="matrix(1 0 0 -1 0 9.094947e-13)" style="display:inline;overflow:visible;opacity:0.15;"/>
</g>
<g id="keylines" class="st6">
	
		<use xlink:href="#material_x5F_product_x5F_icon_x5F_keylines"  width="192" height="192" x="0" y="-192" transform="matrix(1 0 0 -1 0 9.094947e-13)" style="display:inline;overflow:visible;"/>
</g>
<g id="trim_area" class="st6">
	
		<use xlink:href="#material_x5F_product_x5F_icon_x5F_trim"  width="192" height="192" id="XMLID_00000025443200146442764000000013471822589145572284_" y="-192" transform="matrix(1 0 0 -1 0 9.094947e-13)" style="display:inline;overflow:visible;"/>
</g>
<g id="icon">
	<g>
		<path class="st25" d="M111.98,188h-31.9c-41.79,0-75.66-33.88-75.66-75.66v-32.8h183.23v32.8C187.65,154.12,153.77,188,111.98,188
			z"/>
		<path class="st26" d="M135.22,41.63c21.2,0,38.41,17.53,37.9,38.85c-0.5,20.68-17.92,36.97-38.61,36.97H57.5
			c-20.69,0-38.11-16.28-38.61-36.97c-0.52-21.32,16.69-38.85,37.9-38.85H135.22z M135.22,27.11H57.64
			c-28.77,0-52.82,22.81-53.28,51.58c-0.46,29.36,23.16,53.28,52.42,53.28h78.38c28.97,0,52.43-23.45,52.43-52.43
			C187.65,50.63,164.13,27.11,135.22,27.11z"/>
		<path class="st20" d="M173.92,74.55c-0.26,1.65-0.51,3.32-0.68,4.98h-0.11v0.01c0,20.85-17.06,37.91-37.91,37.91H56.78
			c-20.85,0-37.91-17.06-37.91-37.91v-0.01h-0.12c-0.17-1.64-0.42-3.28-0.67-4.91c-0.68-4.38-1.35-8.69-0.26-12.69
			c1.1-4.21,3.93-7.7,6.74-11.17c1.71-2.11,3.4-4.2,4.69-6.44c1.33-2.31,2.33-4.88,3.32-7.45c1.6-4.14,3.2-8.27,6.21-11.28
			c2.96-2.96,7.01-4.55,11.06-6.15c2.61-1.03,5.21-2.05,7.53-3.44c2.24-1.29,4.33-2.99,6.44-4.69c3.46-2.8,6.96-5.63,11.17-6.74
			c3.99-1.09,8.31-0.42,12.69,0.26c2.75,0.43,5.53,0.86,8.27,0.86c2.74,0,5.52-0.43,8.27-0.86c4.38-0.68,8.69-1.35,12.69-0.26
			c4.21,1.1,7.7,3.93,11.17,6.74c2.11,1.71,4.2,3.4,6.44,4.69c2.31,1.33,4.88,2.33,7.45,3.32c4.14,1.6,8.27,3.2,11.28,6.21
			c2.99,2.99,4.59,7.12,6.19,11.25c1,2.59,2,5.17,3.34,7.47c1.29,2.24,2.99,4.33,4.69,6.44c2.8,3.46,5.63,6.96,6.74,11.17
			C175.27,65.86,174.6,70.17,173.92,74.55z"/>
		<g>
			<path class="st27" d="M90.09,20.28l6.24,10.77c1.38,2.43,0.59,5.45-1.84,6.83c-2.43,1.38-5.45,0.53-6.83-1.84l-6.24-10.77
				c-1.38-2.43-0.53-5.45,1.84-6.83C85.69,17.06,88.71,17.91,90.09,20.28z"/>
			<path class="st27" d="M118.67,42.94l2.3-12.22c0.53-2.69,3.15-4.47,5.85-4.01c2.76,0.53,4.53,3.15,4.01,5.85l-2.3,12.22
				c-0.53,2.76-3.15,4.53-5.85,4.01C119.91,48.26,118.14,45.64,118.67,42.94z"/>
			<path class="st27" d="M76.09,73.89l-5.06-11.37c-1.12-2.56,0-5.45,2.5-6.57c2.5-1.12,5.45,0,6.57,2.5l5.06,11.37
				c1.12,2.5,0,5.45-2.5,6.57C80.17,77.5,77.21,76.38,76.09,73.89z"/>
			<path class="st27" d="M51.85,102.53l2.3-12.22c0.46-2.76,3.09-4.53,5.85-4.01c2.76,0.53,4.53,3.15,4.01,5.85l-2.3,12.22
				c-0.53,2.76-3.15,4.53-5.85,4.01C53.1,107.85,51.33,105.22,51.85,102.53z"/>
			<path class="st27" d="M42.59,66.13l-11.04,5.78c-2.43,1.25-3.42,4.27-2.1,6.7c1.25,2.43,4.27,3.42,6.7,2.1l11.04-5.78
				c2.43-1.25,3.42-4.27,2.1-6.7C48.04,65.8,45.02,64.88,42.59,66.13z"/>
			<path class="st27" d="M50.6,32.69l-7.42,9.99C41.54,44.91,42,48,44.23,49.64c2.23,1.64,5.32,1.18,6.96-1.05l7.42-9.99
				c1.64-2.23,1.18-5.32-1.05-6.96C55.4,30,52.25,30.46,50.6,32.69z"/>
			<path class="st27" d="M89.3,99.7l7.42-9.99c1.64-2.17,4.73-2.63,6.96-1.05c2.23,1.64,2.69,4.73,1.05,6.96l-7.42,9.99
				c-1.64,2.23-4.73,2.69-6.96,1.05C88.12,105.03,87.66,101.94,89.3,99.7z"/>
			<path class="st27" d="M145.73,63.18l8.08,9.46c1.77,2.1,4.93,2.37,7.03,0.59c2.1-1.77,2.37-4.93,0.59-7.03l-8.08-9.46
				c-1.77-2.1-4.93-2.37-7.03-0.59C144.22,57.99,143.96,61.07,145.73,63.18z"/>
			<path class="st27" d="M149.15,99.57l-6.24-10.77c-1.38-2.37-4.4-3.22-6.83-1.84c-2.37,1.38-3.22,4.4-1.84,6.83l6.24,10.77
				c1.38,2.37,4.4,3.22,6.83,1.84C149.67,105.03,150.53,102,149.15,99.57z"/>
			<path class="st27" d="M112.62,60.15l11.43,4.93c2.5,1.05,3.68,4.01,2.63,6.57c-1.12,2.56-4.07,3.74-6.57,2.63l-11.43-4.93
				c-2.56-1.12-3.74-4.07-2.63-6.57C107.17,60.22,110.13,59.04,112.62,60.15z"/>
		</g>
	</g>
</g>
</svg>
