<?xml version="1.0" encoding="utf-8"?>
<!-- Generator: Adobe Illustrator 26.0.2, SVG Export Plug-In . SVG Version: 6.00 Build 0)  -->
<svg version="1.1" xmlns="http://www.w3.org/2000/svg" xmlns:xlink="http://www.w3.org/1999/xlink" x="0px" y="0px"
	 viewBox="0 0 192 192" style="enable-background:new 0 0 192 192;" xml:space="preserve">
<style type="text/css">
	.st0{fill:none;}
	.st1{clip-path:url(#SVGID_00000134971041065133233250000003804077906167104410_);}
	.st2{fill:none;stroke:#000000;stroke-width:0.25;stroke-miterlimit:10;}
	.st3{opacity:0.4;}
	.st4{clip-path:url(#SVGID_00000146457572485430586640000017696075060936961727_);}
	.st5{fill:#DB4437;fill-opacity:0.4;}
	.st6{display:none;}
	.st7{display:inline;fill:#FBF9F6;}
	.st8{fill:#D48861;}
	.st9{fill:#E7A67D;}
	.st10{fill:#C9C2C0;}
	.st11{fill:#FFAE5C;}
	.st12{fill:#E98835;}
	.st13{fill:#F7973F;}
	.st14{fill:#7A4330;}
	.st15{fill:#FF2D2B;}
	.st16{fill:#D3D3D3;}
	.st17{fill:#00D262;}
	.st18{fill:#BBDEFB;}
	.st19{fill:#FAFAFA;}
	.st20{fill:#FFFFFF;}
	.st21{fill:#FFCE78;}
	.st22{fill:#FFEEC0;}
	.st23{fill:#FFB8AB;}
	.st24{fill-rule:evenodd;clip-rule:evenodd;fill:#F3F3F3;}
	.st25{fill:#FF4A3D;}
	.st26{fill:#D8304E;}
	.st27{fill:#BDBDBD;}
	.st28{fill:#FF821E;}
	.st29{fill:#FF6715;}
	.st30{fill:#F3F3F3;}
	.st31{fill:#EB034A;}
	.st32{fill:#FFDEA5;}
	.st33{fill:#9B9B9B;}
	.st34{fill:#97DDFF;}
	.st35{fill:#BEBEBE;}
	.st36{fill:#757575;}
	.st37{fill:#F9A825;}
	.st38{fill:#FFD54F;}
	.st39{enable-background:new    ;}
	.st40{clip-path:url(#SVGID_00000106850197921887173650000007288383226474165420_);fill:#D38761;}
	.st41{fill:#D38761;}
	.st42{clip-path:url(#SVGID_00000168114759255376847840000004918304225327916175_);fill:#D38761;}
	.st43{clip-path:url(#SVGID_00000021112474886431383980000007229151462048794298_);fill:#D38761;}
	.st44{clip-path:url(#SVGID_00000028323443313981336260000002170227708863170699_);fill:#D38761;}
	.st45{clip-path:url(#SVGID_00000124855172259278516430000014105703342624965794_);fill:#D38761;}
	.st46{clip-path:url(#SVGID_00000004513555214512771900000001246363950015798961_);fill:#D38761;}
	.st47{clip-path:url(#SVGID_00000103976310981420497810000001931960929140225951_);fill:#D38761;}
	.st48{clip-path:url(#SVGID_00000049213289518209214370000018293435489637419163_);fill:#D38761;}
	.st49{clip-path:url(#SVGID_00000101781586720051249610000006639517724752677522_);fill:#D38761;}
	.st50{fill:#FF8A80;}
	.st51{fill:none;stroke:#F4C6C6;stroke-width:6;stroke-linecap:round;stroke-miterlimit:10;}
	.st52{fill:#33691E;}
	.st53{fill:#66BB6A;}
	.st54{fill:#C5E1A5;stroke:#C5E1A5;stroke-width:6;stroke-linecap:round;stroke-miterlimit:10;}
	.st55{fill:#82B1FF;}
	.st56{fill:#FBF9F6;}
	.st57{fill:#D7CCC8;}
	.st58{fill:#A1887F;}
	.st59{fill:#FFCCBC;}
	.st60{fill:#FFE082;}
	.st61{fill:#FFB74D;}
	.st62{fill:#BCAAA4;}
	.st63{fill:#FBC02D;}
	.st64{fill:#FFE0B2;}
	.st65{fill:#5D4037;}
	.st66{fill:#FFAB91;}
	.st67{fill:#96D098;}
	.st68{fill:#DEEECB;}
	.st69{fill:#424242;}
	.st70{fill:#F1F8E9;}
	.st71{fill:#FFECB3;}
	.st72{fill:#B0BEC5;}
	.st73{fill:#E3F2FD;}
	.st74{fill:#EFEFEF;}
	.st75{fill:#F23A5F;}
	.st76{fill:#ABABAB;}
	.st77{fill:#FFD552;}
	.st78{fill:#DFDFDF;}
</style>
<symbol  id="material_x5F_product_x5F_icon_x5F_border" viewBox="0 -192 192 192">
	<rect y="-192" class="st0" width="192" height="192"/>
</symbol>
<symbol  id="material_x5F_product_x5F_icon_x5F_grid" viewBox="0 -192 192 192">
	<g>
		<defs>
			<rect id="SVGID_1_" x="0" y="-192" width="192" height="192"/>
		</defs>
		<clipPath id="SVGID_00000058583745220330120590000008364655465518900645_">
			<use xlink:href="#SVGID_1_"  style="overflow:visible;"/>
		</clipPath>
		<g style="clip-path:url(#SVGID_00000058583745220330120590000008364655465518900645_);">
			<g>
				<line class="st2" x1="4" y1="-192" x2="4" y2="0"/>
				<line class="st2" x1="8" y1="-192" x2="8" y2="0"/>
				<line class="st2" x1="12" y1="-192" x2="12" y2="0"/>
				<line class="st2" x1="16" y1="-192" x2="16" y2="0"/>
				<line class="st2" x1="20" y1="-192" x2="20" y2="0"/>
				<line class="st2" x1="24" y1="-192" x2="24" y2="0"/>
				<line class="st2" x1="28" y1="-192" x2="28" y2="0"/>
				<line class="st2" x1="32" y1="-192" x2="32" y2="0"/>
				<line class="st2" x1="36" y1="-192" x2="36" y2="0"/>
				<line class="st2" x1="40" y1="-192" x2="40" y2="0"/>
				<line class="st2" x1="44" y1="-192" x2="44" y2="0"/>
				<line class="st2" x1="48" y1="-192" x2="48" y2="0"/>
				<line class="st2" x1="52" y1="-192" x2="52" y2="0"/>
				<line class="st2" x1="56" y1="-192" x2="56" y2="0"/>
				<line class="st2" x1="60" y1="-192" x2="60" y2="0"/>
				<line class="st2" x1="64" y1="-192" x2="64" y2="0"/>
				<line class="st2" x1="68" y1="-192" x2="68" y2="0"/>
				<line class="st2" x1="72" y1="-192" x2="72" y2="0"/>
				<line class="st2" x1="76" y1="-192" x2="76" y2="0"/>
				<line class="st2" x1="80" y1="-192" x2="80" y2="0"/>
				<line class="st2" x1="84" y1="-192" x2="84" y2="0"/>
				<line class="st2" x1="88" y1="-192" x2="88" y2="0"/>
				<line class="st2" x1="92" y1="-192" x2="92" y2="0"/>
				<line class="st2" x1="96" y1="-192" x2="96" y2="0"/>
				<line class="st2" x1="100" y1="-192" x2="100" y2="0"/>
				<line class="st2" x1="104" y1="-192" x2="104" y2="0"/>
				<line class="st2" x1="108" y1="-192" x2="108" y2="0"/>
				<line class="st2" x1="112" y1="-192" x2="112" y2="0"/>
				<line class="st2" x1="116" y1="-192" x2="116" y2="0"/>
				<line class="st2" x1="120" y1="-192" x2="120" y2="0"/>
				<line class="st2" x1="124" y1="-192" x2="124" y2="0"/>
				<line class="st2" x1="128" y1="-192" x2="128" y2="0"/>
				<line class="st2" x1="132" y1="-192" x2="132" y2="0"/>
				<line class="st2" x1="136" y1="-192" x2="136" y2="0"/>
				<line class="st2" x1="140" y1="-192" x2="140" y2="0"/>
				<line class="st2" x1="144" y1="-192" x2="144" y2="0"/>
				<line class="st2" x1="148" y1="-192" x2="148" y2="0"/>
				<line class="st2" x1="152" y1="-192" x2="152" y2="0"/>
				<line class="st2" x1="156" y1="-192" x2="156" y2="0"/>
				<line class="st2" x1="160" y1="-192" x2="160" y2="0"/>
				<line class="st2" x1="164" y1="-192" x2="164" y2="0"/>
				<line class="st2" x1="168" y1="-192" x2="168" y2="0"/>
				<line class="st2" x1="172" y1="-192" x2="172" y2="0"/>
				<line class="st2" x1="176" y1="-192" x2="176" y2="0"/>
				<line class="st2" x1="180" y1="-192" x2="180" y2="0"/>
				<line class="st2" x1="184" y1="-192" x2="184" y2="0"/>
				<line class="st2" x1="188" y1="-192" x2="188" y2="0"/>
			</g>
			<g>
				<line class="st2" x1="0" y1="-4" x2="192" y2="-4"/>
				<line class="st2" x1="0" y1="-8" x2="192" y2="-8"/>
				<line class="st2" x1="0" y1="-12" x2="192" y2="-12"/>
				<line class="st2" x1="0" y1="-16" x2="192" y2="-16"/>
				<line class="st2" x1="0" y1="-20" x2="192" y2="-20"/>
				<line class="st2" x1="0" y1="-24" x2="192" y2="-24"/>
				<line class="st2" x1="0" y1="-28" x2="192" y2="-28"/>
				<line class="st2" x1="0" y1="-32" x2="192" y2="-32"/>
				<line class="st2" x1="0" y1="-36" x2="192" y2="-36"/>
				<line class="st2" x1="0" y1="-40" x2="192" y2="-40"/>
				<line class="st2" x1="0" y1="-44" x2="192" y2="-44"/>
				<line class="st2" x1="0" y1="-48" x2="192" y2="-48"/>
				<line class="st2" x1="0" y1="-52" x2="192" y2="-52"/>
				<line class="st2" x1="0" y1="-56" x2="192" y2="-56"/>
				<line class="st2" x1="0" y1="-60" x2="192" y2="-60"/>
				<line class="st2" x1="0" y1="-64" x2="192" y2="-64"/>
				<line class="st2" x1="0" y1="-68" x2="192" y2="-68"/>
				<line class="st2" x1="0" y1="-72" x2="192" y2="-72"/>
				<line class="st2" x1="0" y1="-76" x2="192" y2="-76"/>
				<line class="st2" x1="0" y1="-80" x2="192" y2="-80"/>
				<line class="st2" x1="0" y1="-84" x2="192" y2="-84"/>
				<line class="st2" x1="0" y1="-88" x2="192" y2="-88"/>
				<line class="st2" x1="0" y1="-92" x2="192" y2="-92"/>
				<line class="st2" x1="0" y1="-96" x2="192" y2="-96"/>
				<line class="st2" x1="0" y1="-100" x2="192" y2="-100"/>
				<line class="st2" x1="0" y1="-104" x2="192" y2="-104"/>
				<line class="st2" x1="0" y1="-108" x2="192" y2="-108"/>
				<line class="st2" x1="0" y1="-112" x2="192" y2="-112"/>
				<line class="st2" x1="0" y1="-116" x2="192" y2="-116"/>
				<line class="st2" x1="0" y1="-120" x2="192" y2="-120"/>
				<line class="st2" x1="0" y1="-124" x2="192" y2="-124"/>
				<line class="st2" x1="0" y1="-128" x2="192" y2="-128"/>
				<line class="st2" x1="0" y1="-132" x2="192" y2="-132"/>
				<line class="st2" x1="0" y1="-136" x2="192" y2="-136"/>
				<line class="st2" x1="0" y1="-140" x2="192" y2="-140"/>
				<line class="st2" x1="0" y1="-144" x2="192" y2="-144"/>
				<line class="st2" x1="0" y1="-148" x2="192" y2="-148"/>
				<line class="st2" x1="0" y1="-152" x2="192" y2="-152"/>
				<line class="st2" x1="0" y1="-156" x2="192" y2="-156"/>
				<line class="st2" x1="0" y1="-160" x2="192" y2="-160"/>
				<line class="st2" x1="0" y1="-164" x2="192" y2="-164"/>
				<line class="st2" x1="0" y1="-168" x2="192" y2="-168"/>
				<line class="st2" x1="0" y1="-172" x2="192" y2="-172"/>
				<line class="st2" x1="0" y1="-176" x2="192" y2="-176"/>
				<line class="st2" x1="0" y1="-180" x2="192" y2="-180"/>
				<line class="st2" x1="0" y1="-184" x2="192" y2="-184"/>
				<line class="st2" x1="0" y1="-188" x2="192" y2="-188"/>
			</g>
			<g>
				<path d="M191.75-0.25v-191.5H0.25v191.5H191.75 M192,0H0v-192h192V0L192,0z"/>
			</g>
		</g>
	</g>
</symbol>
<symbol  id="material_x5F_product_x5F_icon_x5F_keylines" viewBox="0 -192 192 192">
	<g class="st3">
		<defs>
			<path id="SVGID_00000058547144485880006310000008759719599455384505_" class="st3" d="M0,0v-192h192V0H0z"/>
		</defs>
		<clipPath id="SVGID_00000093873158106759814110000008113227296455542412_">
			<use xlink:href="#SVGID_00000058547144485880006310000008759719599455384505_"  style="overflow:visible;"/>
		</clipPath>
		<g style="clip-path:url(#SVGID_00000093873158106759814110000008113227296455542412_);">
			<line class="st2" x1="0.25" y1="-0.25" x2="191.75" y2="-191.75"/>
			<g>
				<path d="M191.75-0.25v-191.5H0.25v191.5H191.75 M192,0H0v-192h192V0L192,0z"/>
			</g>
			<line class="st2" x1="191.75" y1="-0.25" x2="0.25" y2="-191.75"/>
			<line class="st2" x1="124" y1="0" x2="124" y2="-192"/>
			<line class="st2" x1="68" y1="0" x2="68" y2="-192"/>
			<line class="st2" x1="192" y1="-124" x2="0" y2="-124"/>
			<line class="st2" x1="192" y1="-68" x2="0" y2="-68"/>
			<circle class="st2" cx="96" cy="-96" r="40"/>
			<line class="st2" x1="0" y1="-96" x2="192" y2="-96"/>
			<line class="st2" x1="96" y1="0" x2="96" y2="-192"/>
		</g>
		<g style="clip-path:url(#SVGID_00000093873158106759814110000008113227296455542412_);">
			<g>
				<path d="M96-8.25c48.39,0,87.75-39.36,87.75-87.75S144.39-183.75,96-183.75S8.25-144.39,8.25-96S47.61-8.25,96-8.25 M96-8
					C47.4-8,8-47.4,8-96s39.4-88,88-88c48.6,0,88,39.4,88,88S144.6-8,96-8L96-8z"/>
			</g>
		</g>
		<g style="clip-path:url(#SVGID_00000093873158106759814110000008113227296455542412_);">
			<g>
				<path d="M160-20.25c6.48,0,11.75-5.27,11.75-11.75v-128c0-6.48-5.27-11.75-11.75-11.75H32c-6.48,0-11.75,5.27-11.75,11.75v128
					c0,6.48,5.27,11.75,11.75,11.75H160 M160-20H32c-6.6,0-12-5.4-12-12v-128c0-6.6,5.4-12,12-12h128c6.6,0,12,5.4,12,12v128
					C172-25.4,166.6-20,160-20L160-20z"/>
			</g>
		</g>
		<g style="clip-path:url(#SVGID_00000093873158106759814110000008113227296455542412_);">
			<g>
				<path d="M148-8.25c6.48,0,11.75-5.27,11.75-11.75v-152c0-6.48-5.27-11.75-11.75-11.75H44c-6.48,0-11.75,5.27-11.75,11.75v152
					c0,6.48,5.27,11.75,11.75,11.75H148 M148-8H44c-6.6,0-12-5.4-12-12v-152c0-6.6,5.4-12,12-12h104c6.6,0,12,5.4,12,12v152
					C160-13.4,154.6-8,148-8L148-8z"/>
			</g>
		</g>
		<g style="clip-path:url(#SVGID_00000093873158106759814110000008113227296455542412_);">
			<g>
				<path d="M172-32.25c6.48,0,11.75-5.27,11.75-11.75v-104c0-6.48-5.27-11.75-11.75-11.75H20c-6.48,0-11.75,5.27-11.75,11.75v104
					c0,6.48,5.27,11.75,11.75,11.75H172 M172-32H20c-6.6,0-12-5.4-12-12v-104c0-6.6,5.4-12,12-12h152c6.6,0,12,5.4,12,12v104
					C184-37.4,178.6-32,172-32L172-32z"/>
			</g>
		</g>
	</g>
</symbol>
<symbol  id="material_x5F_product_x5F_icon_x5F_trim" viewBox="0 -192 192 192">
	<path class="st5" d="M0,0v-192h192V0H0z M188-188H4V-4h184V-188z"/>
</symbol>
<g id="background" class="st6">
	<rect x="0" y="0" class="st7" width="192" height="192"/>
</g>
<g id="border" class="st6">
	
		<use xlink:href="#material_x5F_product_x5F_icon_x5F_border"  width="192" height="192" y="-192" transform="matrix(1 0 0 -1 0 0)" style="display:inline;overflow:visible;"/>
</g>
<g id="grid" class="st6">
	
		<use xlink:href="#material_x5F_product_x5F_icon_x5F_grid"  width="192" height="192" id="XMLID_00000104705331576049059660000005728040881685185712_" x="0" y="-192" transform="matrix(1 0 0 -1 0 0)" style="display:inline;overflow:visible;opacity:0.15;"/>
</g>
<g id="keylines" class="st6">
	
		<use xlink:href="#material_x5F_product_x5F_icon_x5F_keylines"  width="192" height="192" x="0" y="-192" transform="matrix(1 0 0 -1 0 0)" style="display:inline;overflow:visible;"/>
</g>
<g id="trim_area" class="st6">
	
		<use xlink:href="#material_x5F_product_x5F_icon_x5F_trim"  width="192" height="192" id="XMLID_00000029042787777948761910000016396677057610595516_" y="-192" transform="matrix(1 0 0 -1 0 0)" style="display:inline;overflow:visible;"/>
</g>
<g id="icon">
	<path class="st77" d="M113.74,21.26l14.77,28.32c2.24,4.2,6.33,7.16,11.08,7.82l31.19,4.27c16.68,2.3,23.14,22.86,10.81,34.3
		l-21.37,19.71c-3.69,3.42-5.41,8.48-4.48,13.4l5.21,28.91c2.9,16.1-13.85,28.65-28.55,21.29l-29.8-14.78
		c-4.15-2.04-9.03-2.04-13.19,0l-29.8,14.78c-14.7,7.29-31.45-5.19-28.55-21.29l5.21-28.91c0.92-4.93-0.79-9.99-4.48-13.4
		L10.41,95.96c-12.33-11.37-5.87-32,10.81-34.3l31.19-4.27c4.75-0.66,8.9-3.55,11.08-7.82l14.77-28.32
		C85.78,7.01,106.29,7.01,113.74,21.26z"/>
</g>
</svg>
