<?xml version="1.0" encoding="utf-8"?>
<!-- Generator: Adobe Illustrator 26.0.2, SVG Export Plug-In . SVG Version: 6.00 Build 0)  -->
<svg version="1.1" id="icon" xmlns="http://www.w3.org/2000/svg" xmlns:xlink="http://www.w3.org/1999/xlink" x="0px" y="0px"
	 viewBox="0 0 192 192" style="enable-background:new 0 0 192 192;" xml:space="preserve">
<style type="text/css">
	.st0{fill:#6EBF10;}
	.st1{fill:#389B0A;}
</style>
<g>
	<path class="st0" d="M115.8,95.7c-12.5-7.3-26.5-23.6-32.4-49.3c-4.6-20-24.5-23-35.7-23.2C28.9,23.1,20,34.9,20,57.7
		c0,25.7,7,66.9,27.5,93c19.5,24.8,53.8,46.1,94.3,33.1c29.8-9.5,37.9-41.4,23.2-61.5C150.6,102.6,132.3,105.3,115.8,95.7
		L115.8,95.7z"/>
	<path class="st1" d="M92.4,70.6c0,0-6.1-13.4-9.7-28.6c-4.8-20-22-21.9-33.1-21C30.8,22.4,20,34.9,20,57.7
		c-0.4,17.3,4.2,38.4,4.2,38.4c6,6.2,13.6,3,15.2-3.3c1.2-5.2,0.5-9.9,5.8-11.2c7.8-1.9,10.4,8.8,19,5.9c9.1-3.1,2.8-12.7,9.6-15.7
		C81.2,68.6,85.2,80.6,92.4,70.6L92.4,70.6z"/>
	<path class="st0" d="M49.5,8.6c-1-5-8.2-5.4-10.4-2.5c-3.4,4.4-5.5,12.3-5.5,18.3c0,6.9,8.2,6.4,13,5.4c5-1.1,10.9-3.6,9.4-7.4
		C54.3,18.6,51.4,18.6,49.5,8.6L49.5,8.6z"/>
</g>
</svg>
