<?xml version="1.0" encoding="utf-8"?>
<!-- Generator: Adobe Illustrator 26.0.2, SVG Export Plug-In . SVG Version: 6.00 Build 0)  -->
<svg version="1.1" xmlns="http://www.w3.org/2000/svg" xmlns:xlink="http://www.w3.org/1999/xlink" x="0px" y="0px"
	 viewBox="0 0 192 192" style="enable-background:new 0 0 192 192;" xml:space="preserve">
<style type="text/css">
	.st0{fill:none;}
	.st1{clip-path:url(#SVGID_00000158735208159254337660000002526131486827813023_);}
	.st2{fill:none;stroke:#000000;stroke-width:0.25;stroke-miterlimit:10;}
	.st3{opacity:0.4;}
	.st4{clip-path:url(#SVGID_00000018227725003624080400000004449574488504787621_);}
	.st5{fill:#DB4437;fill-opacity:0.4;}
	.st6{display:none;}
	.st7{display:inline;fill:#FBF9F6;}
	.st8{fill:#5097FF;}
	.st9{fill:#D48861;}
	.st10{fill:#E7A67D;}
	.st11{fill:#C9C2C0;}
	.st12{fill:#FFAE5C;}
	.st13{fill:#E98835;}
	.st14{fill:#F7973F;}
	.st15{fill:#7A4330;}
	.st16{fill:#FF2D2B;}
	.st17{fill:#D3D3D3;}
	.st18{fill:#00D262;}
	.st19{fill:#BBDEFB;}
	.st20{fill:#FAFAFA;}
	.st21{fill:#FFFFFF;}
	.st22{fill:#FFCE78;}
	.st23{fill:#FFEEC0;}
	.st24{fill:#FFB8AB;}
	.st25{fill-rule:evenodd;clip-rule:evenodd;fill:#F3F3F3;}
	.st26{fill:#FF4A3D;}
	.st27{fill:#D8304E;}
	.st28{fill:#BDBDBD;}
	.st29{fill:#FF821E;}
	.st30{fill:#FF6715;}
	.st31{fill:#F3F3F3;}
	.st32{fill:#EB034A;}
	.st33{fill:#FFDEA5;}
	.st34{fill:#EF903A;}
	.st35{fill:#9B9B9B;}
	.st36{fill:#97DDFF;}
	.st37{fill:#BEBEBE;}
	.st38{fill:#757575;}
	.st39{fill:#F9A825;}
	.st40{fill:#FFD54F;}
	.st41{enable-background:new    ;}
	.st42{clip-path:url(#SVGID_00000163767977831819579760000008003386650800195985_);fill:#D38761;}
	.st43{fill:#D38761;}
	.st44{clip-path:url(#SVGID_00000052099793332898944780000015998855412102303647_);fill:#D38761;}
	.st45{clip-path:url(#SVGID_00000133519159858805432560000009399203006613195155_);fill:#D38761;}
	.st46{clip-path:url(#SVGID_00000163768563003355184550000006371146839811716760_);fill:#D38761;}
	.st47{clip-path:url(#SVGID_00000145741391951342575500000002651274650142020251_);fill:#D38761;}
	.st48{clip-path:url(#SVGID_00000178172858920181016660000011307529574992019634_);fill:#D38761;}
	.st49{clip-path:url(#SVGID_00000034074119787856335350000000916708758240460958_);fill:#D38761;}
	.st50{clip-path:url(#SVGID_00000009563273284786047360000007247070143328223384_);fill:#D38761;}
	.st51{clip-path:url(#SVGID_00000038375593113795141890000014815112833202234777_);fill:#D38761;}
	.st52{fill:#FF8A80;}
	.st53{fill:none;stroke:#F4C6C6;stroke-width:6;stroke-linecap:round;stroke-miterlimit:10;}
	.st54{fill:#33691E;}
	.st55{fill:#66BB6A;}
	.st56{fill:#C5E1A5;stroke:#C5E1A5;stroke-width:6;stroke-linecap:round;stroke-miterlimit:10;}
	.st57{fill:#82B1FF;}
	.st58{fill:#FBF9F6;}
	.st59{fill:#D7CCC8;}
	.st60{fill:#A1887F;}
	.st61{fill:#FFCCBC;}
	.st62{fill:#FFE082;}
	.st63{fill:#FFB74D;}
	.st64{fill:#BCAAA4;}
	.st65{fill:#FBC02D;}
	.st66{fill:#FFE0B2;}
	.st67{fill:#5D4037;}
	.st68{fill:#FFAB91;}
	.st69{fill:#96D098;}
	.st70{fill:#DEEECB;}
	.st71{fill:#424242;}
	.st72{fill:#F1F8E9;}
	.st73{fill:#FFECB3;}
	.st74{fill:#B0BEC5;}
	.st75{fill:#E3F2FD;}
	.st76{fill:#EFEFEF;}
	.st77{fill:#F23A5F;}
	.st78{fill:#ABABAB;}
	.st79{fill:#FFD552;}
	.st80{fill:#DFDFDF;}
	.st81{fill:#FFE2A7;}
	.st82{fill:#FFBD7F;}
	.st83{fill:#009100;}
	.st84{fill:#49D700;}
	.st85{fill:#FF2B61;}
	.st86{fill:#FFC226;}
</style>
<symbol  id="material_x5F_product_x5F_icon_x5F_border" viewBox="0 -192 192 192">
	<rect y="-192" class="st0" width="192" height="192"/>
</symbol>
<symbol  id="material_x5F_product_x5F_icon_x5F_grid" viewBox="0 -192 192 192">
	<g>
		<defs>
			<rect id="SVGID_1_" x="0" y="-192" width="192" height="192"/>
		</defs>
		<clipPath id="SVGID_00000016037524109942607820000002005794905087773323_">
			<use xlink:href="#SVGID_1_"  style="overflow:visible;"/>
		</clipPath>
		<g style="clip-path:url(#SVGID_00000016037524109942607820000002005794905087773323_);">
			<g>
				<line class="st2" x1="4" y1="-192" x2="4" y2="0"/>
				<line class="st2" x1="8" y1="-192" x2="8" y2="0"/>
				<line class="st2" x1="12" y1="-192" x2="12" y2="0"/>
				<line class="st2" x1="16" y1="-192" x2="16" y2="0"/>
				<line class="st2" x1="20" y1="-192" x2="20" y2="0"/>
				<line class="st2" x1="24" y1="-192" x2="24" y2="0"/>
				<line class="st2" x1="28" y1="-192" x2="28" y2="0"/>
				<line class="st2" x1="32" y1="-192" x2="32" y2="0"/>
				<line class="st2" x1="36" y1="-192" x2="36" y2="0"/>
				<line class="st2" x1="40" y1="-192" x2="40" y2="0"/>
				<line class="st2" x1="44" y1="-192" x2="44" y2="0"/>
				<line class="st2" x1="48" y1="-192" x2="48" y2="0"/>
				<line class="st2" x1="52" y1="-192" x2="52" y2="0"/>
				<line class="st2" x1="56" y1="-192" x2="56" y2="0"/>
				<line class="st2" x1="60" y1="-192" x2="60" y2="0"/>
				<line class="st2" x1="64" y1="-192" x2="64" y2="0"/>
				<line class="st2" x1="68" y1="-192" x2="68" y2="0"/>
				<line class="st2" x1="72" y1="-192" x2="72" y2="0"/>
				<line class="st2" x1="76" y1="-192" x2="76" y2="0"/>
				<line class="st2" x1="80" y1="-192" x2="80" y2="0"/>
				<line class="st2" x1="84" y1="-192" x2="84" y2="0"/>
				<line class="st2" x1="88" y1="-192" x2="88" y2="0"/>
				<line class="st2" x1="92" y1="-192" x2="92" y2="0"/>
				<line class="st2" x1="96" y1="-192" x2="96" y2="0"/>
				<line class="st2" x1="100" y1="-192" x2="100" y2="0"/>
				<line class="st2" x1="104" y1="-192" x2="104" y2="0"/>
				<line class="st2" x1="108" y1="-192" x2="108" y2="0"/>
				<line class="st2" x1="112" y1="-192" x2="112" y2="0"/>
				<line class="st2" x1="116" y1="-192" x2="116" y2="0"/>
				<line class="st2" x1="120" y1="-192" x2="120" y2="0"/>
				<line class="st2" x1="124" y1="-192" x2="124" y2="0"/>
				<line class="st2" x1="128" y1="-192" x2="128" y2="0"/>
				<line class="st2" x1="132" y1="-192" x2="132" y2="0"/>
				<line class="st2" x1="136" y1="-192" x2="136" y2="0"/>
				<line class="st2" x1="140" y1="-192" x2="140" y2="0"/>
				<line class="st2" x1="144" y1="-192" x2="144" y2="0"/>
				<line class="st2" x1="148" y1="-192" x2="148" y2="0"/>
				<line class="st2" x1="152" y1="-192" x2="152" y2="0"/>
				<line class="st2" x1="156" y1="-192" x2="156" y2="0"/>
				<line class="st2" x1="160" y1="-192" x2="160" y2="0"/>
				<line class="st2" x1="164" y1="-192" x2="164" y2="0"/>
				<line class="st2" x1="168" y1="-192" x2="168" y2="0"/>
				<line class="st2" x1="172" y1="-192" x2="172" y2="0"/>
				<line class="st2" x1="176" y1="-192" x2="176" y2="0"/>
				<line class="st2" x1="180" y1="-192" x2="180" y2="0"/>
				<line class="st2" x1="184" y1="-192" x2="184" y2="0"/>
				<line class="st2" x1="188" y1="-192" x2="188" y2="0"/>
			</g>
			<g>
				<line class="st2" x1="0" y1="-4" x2="192" y2="-4"/>
				<line class="st2" x1="0" y1="-8" x2="192" y2="-8"/>
				<line class="st2" x1="0" y1="-12" x2="192" y2="-12"/>
				<line class="st2" x1="0" y1="-16" x2="192" y2="-16"/>
				<line class="st2" x1="0" y1="-20" x2="192" y2="-20"/>
				<line class="st2" x1="0" y1="-24" x2="192" y2="-24"/>
				<line class="st2" x1="0" y1="-28" x2="192" y2="-28"/>
				<line class="st2" x1="0" y1="-32" x2="192" y2="-32"/>
				<line class="st2" x1="0" y1="-36" x2="192" y2="-36"/>
				<line class="st2" x1="0" y1="-40" x2="192" y2="-40"/>
				<line class="st2" x1="0" y1="-44" x2="192" y2="-44"/>
				<line class="st2" x1="0" y1="-48" x2="192" y2="-48"/>
				<line class="st2" x1="0" y1="-52" x2="192" y2="-52"/>
				<line class="st2" x1="0" y1="-56" x2="192" y2="-56"/>
				<line class="st2" x1="0" y1="-60" x2="192" y2="-60"/>
				<line class="st2" x1="0" y1="-64" x2="192" y2="-64"/>
				<line class="st2" x1="0" y1="-68" x2="192" y2="-68"/>
				<line class="st2" x1="0" y1="-72" x2="192" y2="-72"/>
				<line class="st2" x1="0" y1="-76" x2="192" y2="-76"/>
				<line class="st2" x1="0" y1="-80" x2="192" y2="-80"/>
				<line class="st2" x1="0" y1="-84" x2="192" y2="-84"/>
				<line class="st2" x1="0" y1="-88" x2="192" y2="-88"/>
				<line class="st2" x1="0" y1="-92" x2="192" y2="-92"/>
				<line class="st2" x1="0" y1="-96" x2="192" y2="-96"/>
				<line class="st2" x1="0" y1="-100" x2="192" y2="-100"/>
				<line class="st2" x1="0" y1="-104" x2="192" y2="-104"/>
				<line class="st2" x1="0" y1="-108" x2="192" y2="-108"/>
				<line class="st2" x1="0" y1="-112" x2="192" y2="-112"/>
				<line class="st2" x1="0" y1="-116" x2="192" y2="-116"/>
				<line class="st2" x1="0" y1="-120" x2="192" y2="-120"/>
				<line class="st2" x1="0" y1="-124" x2="192" y2="-124"/>
				<line class="st2" x1="0" y1="-128" x2="192" y2="-128"/>
				<line class="st2" x1="0" y1="-132" x2="192" y2="-132"/>
				<line class="st2" x1="0" y1="-136" x2="192" y2="-136"/>
				<line class="st2" x1="0" y1="-140" x2="192" y2="-140"/>
				<line class="st2" x1="0" y1="-144" x2="192" y2="-144"/>
				<line class="st2" x1="0" y1="-148" x2="192" y2="-148"/>
				<line class="st2" x1="0" y1="-152" x2="192" y2="-152"/>
				<line class="st2" x1="0" y1="-156" x2="192" y2="-156"/>
				<line class="st2" x1="0" y1="-160" x2="192" y2="-160"/>
				<line class="st2" x1="0" y1="-164" x2="192" y2="-164"/>
				<line class="st2" x1="0" y1="-168" x2="192" y2="-168"/>
				<line class="st2" x1="0" y1="-172" x2="192" y2="-172"/>
				<line class="st2" x1="0" y1="-176" x2="192" y2="-176"/>
				<line class="st2" x1="0" y1="-180" x2="192" y2="-180"/>
				<line class="st2" x1="0" y1="-184" x2="192" y2="-184"/>
				<line class="st2" x1="0" y1="-188" x2="192" y2="-188"/>
			</g>
			<g>
				<path d="M191.75-0.25v-191.5H0.25v191.5H191.75 M192,0H0v-192h192V0L192,0z"/>
			</g>
		</g>
	</g>
</symbol>
<symbol  id="material_x5F_product_x5F_icon_x5F_keylines" viewBox="0 -192 192 192">
	<g class="st3">
		<defs>
			<path id="SVGID_00000103226736827814340320000015703930944272516025_" class="st3" d="M0,0v-192h192V0H0z"/>
		</defs>
		<clipPath id="SVGID_00000132047397349866690010000002350877152275708833_">
			<use xlink:href="#SVGID_00000103226736827814340320000015703930944272516025_"  style="overflow:visible;"/>
		</clipPath>
		<g style="clip-path:url(#SVGID_00000132047397349866690010000002350877152275708833_);">
			<line class="st2" x1="0.25" y1="-0.25" x2="191.75" y2="-191.75"/>
			<g>
				<path d="M191.75-0.25v-191.5H0.25v191.5H191.75 M192,0H0v-192h192V0L192,0z"/>
			</g>
			<line class="st2" x1="191.75" y1="-0.25" x2="0.25" y2="-191.75"/>
			<line class="st2" x1="124" y1="0" x2="124" y2="-192"/>
			<line class="st2" x1="68" y1="0" x2="68" y2="-192"/>
			<line class="st2" x1="192" y1="-124" x2="0" y2="-124"/>
			<line class="st2" x1="192" y1="-68" x2="0" y2="-68"/>
			<circle class="st2" cx="96" cy="-96" r="40"/>
			<line class="st2" x1="0" y1="-96" x2="192" y2="-96"/>
			<line class="st2" x1="96" y1="0" x2="96" y2="-192"/>
		</g>
		<g style="clip-path:url(#SVGID_00000132047397349866690010000002350877152275708833_);">
			<g>
				<path d="M96-8.25c48.39,0,87.75-39.36,87.75-87.75S144.39-183.75,96-183.75S8.25-144.39,8.25-96S47.61-8.25,96-8.25 M96-8
					C47.4-8,8-47.4,8-96s39.4-88,88-88c48.6,0,88,39.4,88,88S144.6-8,96-8L96-8z"/>
			</g>
		</g>
		<g style="clip-path:url(#SVGID_00000132047397349866690010000002350877152275708833_);">
			<g>
				<path d="M160-20.25c6.48,0,11.75-5.27,11.75-11.75v-128c0-6.48-5.27-11.75-11.75-11.75H32c-6.48,0-11.75,5.27-11.75,11.75v128
					c0,6.48,5.27,11.75,11.75,11.75H160 M160-20H32c-6.6,0-12-5.4-12-12v-128c0-6.6,5.4-12,12-12h128c6.6,0,12,5.4,12,12v128
					C172-25.4,166.6-20,160-20L160-20z"/>
			</g>
		</g>
		<g style="clip-path:url(#SVGID_00000132047397349866690010000002350877152275708833_);">
			<g>
				<path d="M148-8.25c6.48,0,11.75-5.27,11.75-11.75v-152c0-6.48-5.27-11.75-11.75-11.75H44c-6.48,0-11.75,5.27-11.75,11.75v152
					c0,6.48,5.27,11.75,11.75,11.75H148 M148-8H44c-6.6,0-12-5.4-12-12v-152c0-6.6,5.4-12,12-12h104c6.6,0,12,5.4,12,12v152
					C160-13.4,154.6-8,148-8L148-8z"/>
			</g>
		</g>
		<g style="clip-path:url(#SVGID_00000132047397349866690010000002350877152275708833_);">
			<g>
				<path d="M172-32.25c6.48,0,11.75-5.27,11.75-11.75v-104c0-6.48-5.27-11.75-11.75-11.75H20c-6.48,0-11.75,5.27-11.75,11.75v104
					c0,6.48,5.27,11.75,11.75,11.75H172 M172-32H20c-6.6,0-12-5.4-12-12v-104c0-6.6,5.4-12,12-12h152c6.6,0,12,5.4,12,12v104
					C184-37.4,178.6-32,172-32L172-32z"/>
			</g>
		</g>
	</g>
</symbol>
<symbol  id="material_x5F_product_x5F_icon_x5F_trim" viewBox="0 -192 192 192">
	<path class="st5" d="M0,0v-192h192V0H0z M188-188H4V-4h184V-188z"/>
</symbol>
<g id="background" class="st6">
	<rect x="0" y="0" class="st7" width="192" height="192"/>
</g>
<g id="border" class="st6">
	
		<use xlink:href="#material_x5F_product_x5F_icon_x5F_border"  width="192" height="192" y="-192" transform="matrix(1 0 0 -1 0 0)" style="display:inline;overflow:visible;"/>
</g>
<g id="grid" class="st6">
	
		<use xlink:href="#material_x5F_product_x5F_icon_x5F_grid"  width="192" height="192" id="XMLID_00000013190646799609345830000007022686873493464511_" x="0" y="-192" transform="matrix(1 0 0 -1 0 0)" style="display:inline;overflow:visible;opacity:0.15;"/>
</g>
<g id="keylines" class="st6">
	
		<use xlink:href="#material_x5F_product_x5F_icon_x5F_keylines"  width="192" height="192" x="0" y="-192" transform="matrix(1 0 0 -1 0 0)" style="display:inline;overflow:visible;"/>
</g>
<g id="trim_area" class="st6">
	
		<use xlink:href="#material_x5F_product_x5F_icon_x5F_trim"  width="192" height="192" id="XMLID_00000080889524026814765130000016724326884016512143_" y="-192" transform="matrix(1 0 0 -1 0 0)" style="display:inline;overflow:visible;"/>
</g>
<g id="icon">
	<g>
		<path class="st13" d="M107.51,175.08H84.89c-2.16,0-3.93,1.77-3.93,3.93v0.79c0,4.52,3.67,8.2,8.2,8.2h14.16
			c4.52,0,8.2-3.67,8.2-8.2v-0.79C111.44,176.85,109.67,175.08,107.51,175.08z"/>
		<path class="st12" d="M113.93,19.44v-12c0-2.75-3.41-4.06-5.25-1.97L98.26,17.41c-1.18,1.38-3.28,1.38-4.52,0L83.31,5.47
			c-1.84-2.1-5.25-0.79-5.25,1.97V19.5c0,7.47-4.52,14.23-11.41,17.18c-26.95,11.41-45.89,38.09-45.89,69.23
			c0,39.86,33.24,74.15,73.1,75.27c42.55,1.18,77.36-32.98,77.36-75.2c0-31.14-18.95-57.89-45.89-69.3
			C118.46,33.66,113.93,26.98,113.93,19.44z"/>
		<path class="st14" d="M55.52,153.17c10.75,13.83,25.18,21.41,40.52,21.41s29.7-7.64,40.52-21.41
			c10.56-13.53,16.33-31.45,16.33-50.45c0-23.02-8.65-44.51-23.25-58.01c-1.06-0.98-2.8-0.95-3.82,0.06l-0.48,0.48
			c-0.96,0.95-0.93,2.41,0.06,3.33c13.47,12.48,21.47,32.54,21.47,54.14c0,28.61-13.93,53.04-33.38,62.35
			c-2.21,1.06-4.59-1.08-3.58-3.17c6.62-13.72,10.1-36.93,10.15-59.25c0-21.34-2.92-40.96-8.04-54.42
			c-0.49-1.29-2.05-1.94-3.44-1.45l0,0c-1.33,0.47-2,1.81-1.54,3.04c4.85,12.84,7.72,32.32,7.72,52.83
			c0,18.28-2.23,35.35-6.16,48.22c-3.38,10.96-7.32,16.24-10.44,17.88c-0.39,0.21-0.83,0.32-1.28,0.33
			c-0.27,0.01-0.54,0.01-0.81,0.01c-0.27,0-0.54,0-0.81-0.01c-0.45-0.01-0.89-0.12-1.28-0.33c-3.12-1.64-7.05-6.93-10.44-17.88
			c-4-12.87-6.16-30-6.16-48.22c0-20.55,2.86-40.04,7.71-52.83c0.47-1.23-0.21-2.58-1.54-3.05l0,0c-1.39-0.49-2.95,0.16-3.44,1.45
			c-5.12,13.42-8.04,33.09-8.04,54.43c0,22.31,3.5,45.51,10.12,59.23c1.01,2.09-1.37,4.23-3.58,3.17
			c-19.44-9.32-33.36-33.74-33.36-62.34c0-21.6,8-41.66,21.47-54.14c0.99-0.92,1.01-2.38,0.06-3.33l-0.48-0.48
			c-1.02-1.01-2.76-1.04-3.82-0.06c-14.6,13.5-23.25,34.98-23.25,58.01C39.19,121.73,44.96,139.65,55.52,153.17z"/>
	</g>
</g>
</svg>
