<?xml version="1.0" encoding="utf-8"?>
<!-- Generator: Adobe Illustrator 26.0.2, SVG Export Plug-In . SVG Version: 6.00 Build 0)  -->
<svg version="1.1" xmlns="http://www.w3.org/2000/svg" xmlns:xlink="http://www.w3.org/1999/xlink" x="0px" y="0px"
	 viewBox="0 0 192 192" style="enable-background:new 0 0 192 192;" xml:space="preserve">
<style type="text/css">
	.st0{fill:none;}
	.st1{clip-path:url(#SVGID_00000116204806931881744580000015298358892475045530_);}
	.st2{fill:none;stroke:#000000;stroke-width:0.25;stroke-miterlimit:10;}
	.st3{opacity:0.4;}
	.st4{clip-path:url(#SVGID_00000005989419262814408730000011480605818225342602_);}
	.st5{fill:#DB4437;fill-opacity:0.4;}
	.st6{display:none;}
	.st7{display:inline;fill:#FBF9F6;}
	.st8{fill:#5097FF;}
	.st9{fill:#D48861;}
	.st10{fill:#E7A67D;}
	.st11{fill:#C9C2C0;}
	.st12{fill:#FFAE5C;}
	.st13{fill:#E98835;}
	.st14{fill:#F7973F;}
	.st15{fill:#7A4330;}
	.st16{fill:#FF2D2B;}
	.st17{fill:#D3D3D3;}
	.st18{fill:#00D262;}
	.st19{fill:#BBDEFB;}
	.st20{fill:#FAFAFA;}
	.st21{fill:#FFFFFF;}
	.st22{fill:#FFCE78;}
	.st23{fill:#FFEEC0;}
	.st24{fill:#FFB8AB;}
	.st25{fill-rule:evenodd;clip-rule:evenodd;fill:#F3F3F3;}
	.st26{fill:#FF4A3D;}
	.st27{fill:#D8304E;}
	.st28{fill:#BDBDBD;}
	.st29{fill:#FF821E;}
	.st30{fill:#FF6715;}
	.st31{fill:#F3F3F3;}
	.st32{fill:#EB034A;}
	.st33{fill:#FFDEA5;}
	.st34{fill:#EF903A;}
	.st35{fill:#9B9B9B;}
	.st36{fill:#97DDFF;}
	.st37{fill:#BEBEBE;}
	.st38{fill:#757575;}
	.st39{fill:#F9A825;}
	.st40{fill:#FFD54F;}
	.st41{enable-background:new    ;}
	.st42{clip-path:url(#SVGID_00000118367621068179074780000006008063731090947752_);fill:#D38761;}
	.st43{fill:#D38761;}
	.st44{clip-path:url(#SVGID_00000017495570781562859940000014250781258291783583_);fill:#D38761;}
	.st45{clip-path:url(#SVGID_00000050643081118869747790000003022343412592533383_);fill:#D38761;}
	.st46{clip-path:url(#SVGID_00000078729581331510629550000012950319263469873051_);fill:#D38761;}
	.st47{clip-path:url(#SVGID_00000032609593055621685760000009418960709488821125_);fill:#D38761;}
	.st48{clip-path:url(#SVGID_00000139973490472856502330000010523868314924614281_);fill:#D38761;}
	.st49{clip-path:url(#SVGID_00000122682133696663319350000015546900487363917186_);fill:#D38761;}
	.st50{clip-path:url(#SVGID_00000003071934727535461150000005273652656078781356_);fill:#D38761;}
	.st51{clip-path:url(#SVGID_00000145051392538055475910000002043110668322956678_);fill:#D38761;}
	.st52{fill:#FF8A80;}
	.st53{fill:none;stroke:#F4C6C6;stroke-width:6;stroke-linecap:round;stroke-miterlimit:10;}
	.st54{fill:#33691E;}
	.st55{fill:#66BB6A;}
	.st56{fill:#C5E1A5;stroke:#C5E1A5;stroke-width:6;stroke-linecap:round;stroke-miterlimit:10;}
	.st57{fill:#82B1FF;}
	.st58{fill:#FBF9F6;}
	.st59{fill:#D7CCC8;}
	.st60{fill:#A1887F;}
	.st61{fill:#FFCCBC;}
	.st62{fill:#FFE082;}
	.st63{fill:#FFB74D;}
	.st64{fill:#BCAAA4;}
	.st65{fill:#FBC02D;}
	.st66{fill:#FFE0B2;}
	.st67{fill:#5D4037;}
	.st68{fill:#FFAB91;}
	.st69{fill:#96D098;}
	.st70{fill:#DEEECB;}
	.st71{fill:#424242;}
	.st72{fill:#F1F8E9;}
	.st73{fill:#FFECB3;}
	.st74{fill:#B0BEC5;}
	.st75{fill:#E3F2FD;}
	.st76{fill:#EFEFEF;}
	.st77{fill:#F23A5F;}
	.st78{fill:#ABABAB;}
	.st79{fill:#FFD552;}
	.st80{fill:#DFDFDF;}
	.st81{fill:#FFE2A7;}
	.st82{fill:#FFBD7F;}
	.st83{fill:#009100;}
	.st84{fill:#49D700;}
	.st85{fill:#FF2B61;}
	.st86{fill:#FFC226;}
</style>
<symbol  id="material_x5F_product_x5F_icon_x5F_border" viewBox="0 -192 192 192">
	<rect y="-192" class="st0" width="192" height="192"/>
</symbol>
<symbol  id="material_x5F_product_x5F_icon_x5F_grid" viewBox="0 -192 192 192">
	<g>
		<defs>
			<rect id="SVGID_1_" x="0" y="-192" width="192" height="192"/>
		</defs>
		<clipPath id="SVGID_00000012436511069722945870000005682742676653210287_">
			<use xlink:href="#SVGID_1_"  style="overflow:visible;"/>
		</clipPath>
		<g style="clip-path:url(#SVGID_00000012436511069722945870000005682742676653210287_);">
			<g>
				<line class="st2" x1="4" y1="-192" x2="4" y2="0"/>
				<line class="st2" x1="8" y1="-192" x2="8" y2="0"/>
				<line class="st2" x1="12" y1="-192" x2="12" y2="0"/>
				<line class="st2" x1="16" y1="-192" x2="16" y2="0"/>
				<line class="st2" x1="20" y1="-192" x2="20" y2="0"/>
				<line class="st2" x1="24" y1="-192" x2="24" y2="0"/>
				<line class="st2" x1="28" y1="-192" x2="28" y2="0"/>
				<line class="st2" x1="32" y1="-192" x2="32" y2="0"/>
				<line class="st2" x1="36" y1="-192" x2="36" y2="0"/>
				<line class="st2" x1="40" y1="-192" x2="40" y2="0"/>
				<line class="st2" x1="44" y1="-192" x2="44" y2="0"/>
				<line class="st2" x1="48" y1="-192" x2="48" y2="0"/>
				<line class="st2" x1="52" y1="-192" x2="52" y2="0"/>
				<line class="st2" x1="56" y1="-192" x2="56" y2="0"/>
				<line class="st2" x1="60" y1="-192" x2="60" y2="0"/>
				<line class="st2" x1="64" y1="-192" x2="64" y2="0"/>
				<line class="st2" x1="68" y1="-192" x2="68" y2="0"/>
				<line class="st2" x1="72" y1="-192" x2="72" y2="0"/>
				<line class="st2" x1="76" y1="-192" x2="76" y2="0"/>
				<line class="st2" x1="80" y1="-192" x2="80" y2="0"/>
				<line class="st2" x1="84" y1="-192" x2="84" y2="0"/>
				<line class="st2" x1="88" y1="-192" x2="88" y2="0"/>
				<line class="st2" x1="92" y1="-192" x2="92" y2="0"/>
				<line class="st2" x1="96" y1="-192" x2="96" y2="0"/>
				<line class="st2" x1="100" y1="-192" x2="100" y2="0"/>
				<line class="st2" x1="104" y1="-192" x2="104" y2="0"/>
				<line class="st2" x1="108" y1="-192" x2="108" y2="0"/>
				<line class="st2" x1="112" y1="-192" x2="112" y2="0"/>
				<line class="st2" x1="116" y1="-192" x2="116" y2="0"/>
				<line class="st2" x1="120" y1="-192" x2="120" y2="0"/>
				<line class="st2" x1="124" y1="-192" x2="124" y2="0"/>
				<line class="st2" x1="128" y1="-192" x2="128" y2="0"/>
				<line class="st2" x1="132" y1="-192" x2="132" y2="0"/>
				<line class="st2" x1="136" y1="-192" x2="136" y2="0"/>
				<line class="st2" x1="140" y1="-192" x2="140" y2="0"/>
				<line class="st2" x1="144" y1="-192" x2="144" y2="0"/>
				<line class="st2" x1="148" y1="-192" x2="148" y2="0"/>
				<line class="st2" x1="152" y1="-192" x2="152" y2="0"/>
				<line class="st2" x1="156" y1="-192" x2="156" y2="0"/>
				<line class="st2" x1="160" y1="-192" x2="160" y2="0"/>
				<line class="st2" x1="164" y1="-192" x2="164" y2="0"/>
				<line class="st2" x1="168" y1="-192" x2="168" y2="0"/>
				<line class="st2" x1="172" y1="-192" x2="172" y2="0"/>
				<line class="st2" x1="176" y1="-192" x2="176" y2="0"/>
				<line class="st2" x1="180" y1="-192" x2="180" y2="0"/>
				<line class="st2" x1="184" y1="-192" x2="184" y2="0"/>
				<line class="st2" x1="188" y1="-192" x2="188" y2="0"/>
			</g>
			<g>
				<line class="st2" x1="0" y1="-4" x2="192" y2="-4"/>
				<line class="st2" x1="0" y1="-8" x2="192" y2="-8"/>
				<line class="st2" x1="0" y1="-12" x2="192" y2="-12"/>
				<line class="st2" x1="0" y1="-16" x2="192" y2="-16"/>
				<line class="st2" x1="0" y1="-20" x2="192" y2="-20"/>
				<line class="st2" x1="0" y1="-24" x2="192" y2="-24"/>
				<line class="st2" x1="0" y1="-28" x2="192" y2="-28"/>
				<line class="st2" x1="0" y1="-32" x2="192" y2="-32"/>
				<line class="st2" x1="0" y1="-36" x2="192" y2="-36"/>
				<line class="st2" x1="0" y1="-40" x2="192" y2="-40"/>
				<line class="st2" x1="0" y1="-44" x2="192" y2="-44"/>
				<line class="st2" x1="0" y1="-48" x2="192" y2="-48"/>
				<line class="st2" x1="0" y1="-52" x2="192" y2="-52"/>
				<line class="st2" x1="0" y1="-56" x2="192" y2="-56"/>
				<line class="st2" x1="0" y1="-60" x2="192" y2="-60"/>
				<line class="st2" x1="0" y1="-64" x2="192" y2="-64"/>
				<line class="st2" x1="0" y1="-68" x2="192" y2="-68"/>
				<line class="st2" x1="0" y1="-72" x2="192" y2="-72"/>
				<line class="st2" x1="0" y1="-76" x2="192" y2="-76"/>
				<line class="st2" x1="0" y1="-80" x2="192" y2="-80"/>
				<line class="st2" x1="0" y1="-84" x2="192" y2="-84"/>
				<line class="st2" x1="0" y1="-88" x2="192" y2="-88"/>
				<line class="st2" x1="0" y1="-92" x2="192" y2="-92"/>
				<line class="st2" x1="0" y1="-96" x2="192" y2="-96"/>
				<line class="st2" x1="0" y1="-100" x2="192" y2="-100"/>
				<line class="st2" x1="0" y1="-104" x2="192" y2="-104"/>
				<line class="st2" x1="0" y1="-108" x2="192" y2="-108"/>
				<line class="st2" x1="0" y1="-112" x2="192" y2="-112"/>
				<line class="st2" x1="0" y1="-116" x2="192" y2="-116"/>
				<line class="st2" x1="0" y1="-120" x2="192" y2="-120"/>
				<line class="st2" x1="0" y1="-124" x2="192" y2="-124"/>
				<line class="st2" x1="0" y1="-128" x2="192" y2="-128"/>
				<line class="st2" x1="0" y1="-132" x2="192" y2="-132"/>
				<line class="st2" x1="0" y1="-136" x2="192" y2="-136"/>
				<line class="st2" x1="0" y1="-140" x2="192" y2="-140"/>
				<line class="st2" x1="0" y1="-144" x2="192" y2="-144"/>
				<line class="st2" x1="0" y1="-148" x2="192" y2="-148"/>
				<line class="st2" x1="0" y1="-152" x2="192" y2="-152"/>
				<line class="st2" x1="0" y1="-156" x2="192" y2="-156"/>
				<line class="st2" x1="0" y1="-160" x2="192" y2="-160"/>
				<line class="st2" x1="0" y1="-164" x2="192" y2="-164"/>
				<line class="st2" x1="0" y1="-168" x2="192" y2="-168"/>
				<line class="st2" x1="0" y1="-172" x2="192" y2="-172"/>
				<line class="st2" x1="0" y1="-176" x2="192" y2="-176"/>
				<line class="st2" x1="0" y1="-180" x2="192" y2="-180"/>
				<line class="st2" x1="0" y1="-184" x2="192" y2="-184"/>
				<line class="st2" x1="0" y1="-188" x2="192" y2="-188"/>
			</g>
			<g>
				<path d="M191.75-0.25v-191.5H0.25v191.5H191.75 M192,0H0v-192h192V0L192,0z"/>
			</g>
		</g>
	</g>
</symbol>
<symbol  id="material_x5F_product_x5F_icon_x5F_keylines" viewBox="0 -192 192 192">
	<g class="st3">
		<defs>
			<path id="SVGID_00000103226736827814340320000015703930944272516025_" class="st3" d="M0,0v-192h192V0H0z"/>
		</defs>
		<clipPath id="SVGID_00000117677471288008877670000004815624359292083890_">
			<use xlink:href="#SVGID_00000103226736827814340320000015703930944272516025_"  style="overflow:visible;"/>
		</clipPath>
		<g style="clip-path:url(#SVGID_00000117677471288008877670000004815624359292083890_);">
			<line class="st2" x1="0.25" y1="-0.25" x2="191.75" y2="-191.75"/>
			<g>
				<path d="M191.75-0.25v-191.5H0.25v191.5H191.75 M192,0H0v-192h192V0L192,0z"/>
			</g>
			<line class="st2" x1="191.75" y1="-0.25" x2="0.25" y2="-191.75"/>
			<line class="st2" x1="124" y1="0" x2="124" y2="-192"/>
			<line class="st2" x1="68" y1="0" x2="68" y2="-192"/>
			<line class="st2" x1="192" y1="-124" x2="0" y2="-124"/>
			<line class="st2" x1="192" y1="-68" x2="0" y2="-68"/>
			<circle class="st2" cx="96" cy="-96" r="40"/>
			<line class="st2" x1="0" y1="-96" x2="192" y2="-96"/>
			<line class="st2" x1="96" y1="0" x2="96" y2="-192"/>
		</g>
		<g style="clip-path:url(#SVGID_00000117677471288008877670000004815624359292083890_);">
			<g>
				<path d="M96-8.25c48.39,0,87.75-39.36,87.75-87.75S144.39-183.75,96-183.75S8.25-144.39,8.25-96S47.61-8.25,96-8.25 M96-8
					C47.4-8,8-47.4,8-96s39.4-88,88-88c48.6,0,88,39.4,88,88S144.6-8,96-8L96-8z"/>
			</g>
		</g>
		<g style="clip-path:url(#SVGID_00000117677471288008877670000004815624359292083890_);">
			<g>
				<path d="M160-20.25c6.48,0,11.75-5.27,11.75-11.75v-128c0-6.48-5.27-11.75-11.75-11.75H32c-6.48,0-11.75,5.27-11.75,11.75v128
					c0,6.48,5.27,11.75,11.75,11.75H160 M160-20H32c-6.6,0-12-5.4-12-12v-128c0-6.6,5.4-12,12-12h128c6.6,0,12,5.4,12,12v128
					C172-25.4,166.6-20,160-20L160-20z"/>
			</g>
		</g>
		<g style="clip-path:url(#SVGID_00000117677471288008877670000004815624359292083890_);">
			<g>
				<path d="M148-8.25c6.48,0,11.75-5.27,11.75-11.75v-152c0-6.48-5.27-11.75-11.75-11.75H44c-6.48,0-11.75,5.27-11.75,11.75v152
					c0,6.48,5.27,11.75,11.75,11.75H148 M148-8H44c-6.6,0-12-5.4-12-12v-152c0-6.6,5.4-12,12-12h104c6.6,0,12,5.4,12,12v152
					C160-13.4,154.6-8,148-8L148-8z"/>
			</g>
		</g>
		<g style="clip-path:url(#SVGID_00000117677471288008877670000004815624359292083890_);">
			<g>
				<path d="M172-32.25c6.48,0,11.75-5.27,11.75-11.75v-104c0-6.48-5.27-11.75-11.75-11.75H20c-6.48,0-11.75,5.27-11.75,11.75v104
					c0,6.48,5.27,11.75,11.75,11.75H172 M172-32H20c-6.6,0-12-5.4-12-12v-104c0-6.6,5.4-12,12-12h152c6.6,0,12,5.4,12,12v104
					C184-37.4,178.6-32,172-32L172-32z"/>
			</g>
		</g>
	</g>
</symbol>
<symbol  id="material_x5F_product_x5F_icon_x5F_trim" viewBox="0 -192 192 192">
	<path class="st5" d="M0,0v-192h192V0H0z M188-188H4V-4h184V-188z"/>
</symbol>
<g id="background" class="st6">
	<rect x="0" y="0" class="st7" width="192" height="192"/>
</g>
<g id="border" class="st6">
	
		<use xlink:href="#material_x5F_product_x5F_icon_x5F_border"  width="192" height="192" y="-192" transform="matrix(1 0 0 -1 0 0)" style="display:inline;overflow:visible;"/>
</g>
<g id="grid" class="st6">
	
		<use xlink:href="#material_x5F_product_x5F_icon_x5F_grid"  width="192" height="192" id="XMLID_00000056396190715067734880000008635290802978416056_" x="0" y="-192" transform="matrix(1 0 0 -1 0 0)" style="display:inline;overflow:visible;opacity:0.15;"/>
</g>
<g id="keylines" class="st6">
	
		<use xlink:href="#material_x5F_product_x5F_icon_x5F_keylines"  width="192" height="192" x="0" y="-192" transform="matrix(1 0 0 -1 0 0)" style="display:inline;overflow:visible;"/>
</g>
<g id="trim_area" class="st6">
	
		<use xlink:href="#material_x5F_product_x5F_icon_x5F_trim"  width="192" height="192" id="XMLID_00000101816114971565500430000013852472071224319126_" y="-192" transform="matrix(1 0 0 -1 0 0)" style="display:inline;overflow:visible;"/>
</g>
<g id="icon">
	<path class="st81" d="M113.32,183.87H77.5c-41.25,0-74.68-33.5-74.68-74.75V74.22H188v34.89
		C188,150.36,154.56,183.87,113.32,183.87z"/>
	<path class="st82" d="M135.03,21.26H55.78c-29.26,0-52.97,23.7-52.97,52.97s23.7,52.97,52.97,52.97h79.25
		c29.26,0,52.97-23.7,52.97-52.97S164.3,21.26,135.03,21.26z"/>
	<path class="st83" d="M176.54,65.82c0-0.66-0.07-1.32-0.07-2.05c-1.19-15.96-14.04-28.8-29.93-29.93c-0.2,0-0.4,0-0.6-0.07
		c-9.93-0.53-19-5.5-25.23-13.31C114.84,13.05,105.7,8.28,95.5,8.28s-19.33,4.77-25.23,12.18c-6.22,7.81-15.29,12.78-25.23,13.31
		c-0.2,0-0.4,0-0.6,0.07c-15.89,1.13-28.73,13.97-29.93,29.93c-0.07,0.66-0.07,1.39-0.07,2.05c0,24.96,20.26,45.22,45.22,45.22h71.7
		C156.28,111.04,176.54,90.78,176.54,65.82z"/>
	<path class="st16" d="M153.96,69.39c10.99-12.78,10.93-31.38,0.53-44.03c-1.99-2.45-5.69-2.52-7.75-0.07l-6.93,8.05l-4.13,18.65
		l-19.44,8.75l-6.98,8.12c-2.05,2.38-1.46,6.03,1.26,7.68C124.5,84.81,142.91,82.17,153.96,69.39z"/>
	<path class="st84" d="M170.15,89.46c-5.89,13.55-19.4,23.04-35.11,23.04H55.78c-16.43,0-30.45-10.37-35.87-24.92
		c8.06-9.59,19.82-16,32.96-16.92c10.2-0.66,19.66,1.79,27.74,6.55c8.41,4.97,19.07,4.97,27.48,0c8.01-4.77,17.55-7.22,27.68-6.49
		C149.72,71.7,162.09,78.86,170.15,89.46z"/>
	<path class="st85" d="M42.4,94.42c15.43,6.82,33.24,1.39,42.31-12.18c1.72-2.58,0.73-6.16-2.12-7.48l-9.75-4.32l-19.4-0.53
		L39.82,55.82l-9.73-4.31c-2.91-1.32-6.22,0.33-7.02,3.38C19.16,70.71,26.98,87.6,42.4,94.42z"/>
	<path class="st32" d="M140,33.11c7.68,6.62,8.54,18.21,1.92,25.89c-6.62,7.68-18.21,8.61-25.89,1.92L140,33.11z"/>
	<path class="st32" d="M73.13,70.58c-4.1,9.27-14.96,13.44-24.23,9.34c-9.27-4.1-13.44-14.96-9.34-24.23L73.13,70.58z"/>
	<path class="st86" d="M86.04,57.87c6.69,0,12.12-5.42,12.12-12.12s-5.42-12.12-12.12-12.12s-12.12,5.42-12.12,12.12
		S79.35,57.87,86.04,57.87z"/>
	<path class="st86" d="M149.47,94.68c6.69,0,12.12-5.42,12.12-12.12c0-6.69-5.42-12.12-12.12-12.12c-6.69,0-12.12,5.42-12.12,12.12
		C137.35,89.26,142.78,94.68,149.47,94.68z"/>
	<path class="st86" d="M91.2,96.47c0,6.69-5.42,12.12-12.12,12.12c-6.69,0-12.12-5.42-12.12-12.12c0-6.69,5.42-12.12,12.12-12.12
		C85.78,84.35,91.2,89.78,91.2,96.47z"/>
</g>
</svg>
