<?xml version="1.0" encoding="utf-8"?>
<!-- Generator: Adobe Illustrator 26.0.2, SVG Export Plug-In . SVG Version: 6.00 Build 0)  -->
<svg version="1.1" xmlns="http://www.w3.org/2000/svg" xmlns:xlink="http://www.w3.org/1999/xlink" x="0px" y="0px"
	 viewBox="0 0 192 192" style="enable-background:new 0 0 192 192;" xml:space="preserve">
<style type="text/css">
	.st0{fill:none;}
	.st1{clip-path:url(#SVGID_00000112628893667413320250000015397661600652603829_);}
	.st2{fill:none;stroke:#000000;stroke-width:0.25;stroke-miterlimit:10;}
	.st3{opacity:0.4;}
	.st4{clip-path:url(#SVGID_00000152223578330118226670000001451008377467182269_);}
	.st5{fill:#DA4437;fill-opacity:0.4;}
	.st6{display:none;}
	.st7{display:inline;fill:#FAF8F5;}
	.st8{fill:#5096FF;}
	.st9{fill:#D38761;}
	.st10{fill:#E6A57D;}
	.st11{fill:#C8C1BF;}
	.st12{fill:#FFAD5C;}
	.st13{fill:#E88735;}
	.st14{fill:#F6963F;}
	.st15{fill:#7A4330;}
	.st16{fill:#FF2D2B;}
	.st17{fill:#D2D2D2;}
	.st18{fill:#00D162;}
	.st19{fill:#BBDEFB;}
	.st20{fill:#FAFAFA;}
	.st21{fill:#FFFFFF;}
	.st22{fill:#FFCD78;}
	.st23{fill:#FFEDBF;}
	.st24{fill:#FFB7AA;}
	.st25{fill-rule:evenodd;clip-rule:evenodd;fill:#F2F2F2;}
	.st26{fill:#FF4A3D;}
	.st27{fill:#D7304E;}
	.st28{fill:#BDBDBD;}
	.st29{fill:#FF811E;}
	.st30{fill:#FF6715;}
	.st31{fill:#F2F2F2;}
	.st32{fill:#EA034A;}
	.st33{fill:#FFDDA4;}
	.st34{fill:#EE8F3A;}
	.st35{fill:#9A9A9A;}
	.st36{fill:#96DCFF;}
	.st37{fill:#757575;}
	.st38{fill:#F9A825;}
	.st39{fill:#FFD54F;}
	.st40{enable-background:new    ;}
	.st41{clip-path:url(#SVGID_00000032616789941030985240000015753389316665812104_);fill:#D28661;}
	.st42{fill:#D28661;}
	.st43{clip-path:url(#SVGID_00000037662137444157776360000015073615952353314481_);fill:#D28661;}
	.st44{clip-path:url(#SVGID_00000072259017535179910880000016921234830859244214_);fill:#D28661;}
	.st45{clip-path:url(#SVGID_00000011737711368723481560000015277318580512563084_);fill:#D28661;}
	.st46{clip-path:url(#SVGID_00000135650760031833888440000001902023234293998251_);fill:#D28661;}
	.st47{clip-path:url(#SVGID_00000119796843557042799400000011393092077474569905_);fill:#D28661;}
	.st48{clip-path:url(#SVGID_00000165916195947299923430000000345007035584853407_);fill:#D28661;}
	.st49{clip-path:url(#SVGID_00000072246091750674328400000005622818391249124027_);fill:#D28661;}
	.st50{clip-path:url(#SVGID_00000181808810728799612060000007790298101227969955_);fill:#D28661;}
	.st51{fill:#FF8A80;}
	.st52{fill:none;stroke:#F3C5C5;stroke-width:6;stroke-linecap:round;stroke-miterlimit:10;}
	.st53{fill:#33691E;}
	.st54{fill:#66BB6A;}
	.st55{fill:#C5E1A5;stroke:#C5E1A5;stroke-width:6;stroke-linecap:round;stroke-miterlimit:10;}
	.st56{fill:#82B1FF;}
	.st57{fill:#FAF8F5;}
	.st58{fill:#D7CCC8;}
	.st59{fill:#A1887F;}
	.st60{fill:#FFCCBC;}
	.st61{fill:#FFE082;}
	.st62{fill:#FFB74D;}
	.st63{fill:#BCAAA4;}
	.st64{fill:#FBC02D;}
	.st65{fill:#FFE0B2;}
	.st66{fill:#5D4037;}
	.st67{fill:#FFAB91;}
	.st68{fill:#96D098;}
	.st69{fill:#DEEECB;}
	.st70{fill:#424242;}
	.st71{fill:#F1F8E9;}
	.st72{fill:#FFECB3;}
	.st73{fill:#B0BEC5;}
	.st74{fill:#E3F2FD;}
	.st75{fill:#EEEEEE;}
	.st76{fill:#F13A5F;}
	.st77{fill:#AAAAAA;}
	.st78{fill:#FFD452;}
	.st79{fill:#DEDEDE;}
	.st80{fill:#FFE1A6;}
	.st81{fill:#FFBC7F;}
	.st82{fill:#009000;}
	.st83{fill:#49D600;}
	.st84{fill:#FF2B61;}
	.st85{fill:#FFC126;}
	.st86{fill:#9B5440;}
	.st87{fill:#CD711B;}
	.st88{fill:none;stroke:#9B5440;stroke-width:4;stroke-linecap:round;stroke-miterlimit:10;}
	.st89{fill:#97DDFF;}
	.st90{fill:#D3D3D3;}
	.st91{fill:#9B9B9B;}
	.st92{fill:#F3F3F3;}
</style>
<symbol  id="material_x5F_product_x5F_icon_x5F_border" viewBox="0 -192 192 192">
	<rect y="-192" class="st0" width="192" height="192"/>
</symbol>
<symbol  id="material_x5F_product_x5F_icon_x5F_grid" viewBox="0 -192 192 192">
	<g>
		<defs>
			<rect id="SVGID_1_" x="0" y="-192" width="192" height="192"/>
		</defs>
		<clipPath id="SVGID_00000008127318636580385960000002744924667238054049_">
			<use xlink:href="#SVGID_1_"  style="overflow:visible;"/>
		</clipPath>
		<g style="clip-path:url(#SVGID_00000008127318636580385960000002744924667238054049_);">
			<g>
				<line class="st2" x1="4" y1="-192" x2="4" y2="0"/>
				<line class="st2" x1="8" y1="-192" x2="8" y2="0"/>
				<line class="st2" x1="12" y1="-192" x2="12" y2="0"/>
				<line class="st2" x1="16" y1="-192" x2="16" y2="0"/>
				<line class="st2" x1="20" y1="-192" x2="20" y2="0"/>
				<line class="st2" x1="24" y1="-192" x2="24" y2="0"/>
				<line class="st2" x1="28" y1="-192" x2="28" y2="0"/>
				<line class="st2" x1="32" y1="-192" x2="32" y2="0"/>
				<line class="st2" x1="36" y1="-192" x2="36" y2="0"/>
				<line class="st2" x1="40" y1="-192" x2="40" y2="0"/>
				<line class="st2" x1="44" y1="-192" x2="44" y2="0"/>
				<line class="st2" x1="48" y1="-192" x2="48" y2="0"/>
				<line class="st2" x1="52" y1="-192" x2="52" y2="0"/>
				<line class="st2" x1="56" y1="-192" x2="56" y2="0"/>
				<line class="st2" x1="60" y1="-192" x2="60" y2="0"/>
				<line class="st2" x1="64" y1="-192" x2="64" y2="0"/>
				<line class="st2" x1="68" y1="-192" x2="68" y2="0"/>
				<line class="st2" x1="72" y1="-192" x2="72" y2="0"/>
				<line class="st2" x1="76" y1="-192" x2="76" y2="0"/>
				<line class="st2" x1="80" y1="-192" x2="80" y2="0"/>
				<line class="st2" x1="84" y1="-192" x2="84" y2="0"/>
				<line class="st2" x1="88" y1="-192" x2="88" y2="0"/>
				<line class="st2" x1="92" y1="-192" x2="92" y2="0"/>
				<line class="st2" x1="96" y1="-192" x2="96" y2="0"/>
				<line class="st2" x1="100" y1="-192" x2="100" y2="0"/>
				<line class="st2" x1="104" y1="-192" x2="104" y2="0"/>
				<line class="st2" x1="108" y1="-192" x2="108" y2="0"/>
				<line class="st2" x1="112" y1="-192" x2="112" y2="0"/>
				<line class="st2" x1="116" y1="-192" x2="116" y2="0"/>
				<line class="st2" x1="120" y1="-192" x2="120" y2="0"/>
				<line class="st2" x1="124" y1="-192" x2="124" y2="0"/>
				<line class="st2" x1="128" y1="-192" x2="128" y2="0"/>
				<line class="st2" x1="132" y1="-192" x2="132" y2="0"/>
				<line class="st2" x1="136" y1="-192" x2="136" y2="0"/>
				<line class="st2" x1="140" y1="-192" x2="140" y2="0"/>
				<line class="st2" x1="144" y1="-192" x2="144" y2="0"/>
				<line class="st2" x1="148" y1="-192" x2="148" y2="0"/>
				<line class="st2" x1="152" y1="-192" x2="152" y2="0"/>
				<line class="st2" x1="156" y1="-192" x2="156" y2="0"/>
				<line class="st2" x1="160" y1="-192" x2="160" y2="0"/>
				<line class="st2" x1="164" y1="-192" x2="164" y2="0"/>
				<line class="st2" x1="168" y1="-192" x2="168" y2="0"/>
				<line class="st2" x1="172" y1="-192" x2="172" y2="0"/>
				<line class="st2" x1="176" y1="-192" x2="176" y2="0"/>
				<line class="st2" x1="180" y1="-192" x2="180" y2="0"/>
				<line class="st2" x1="184" y1="-192" x2="184" y2="0"/>
				<line class="st2" x1="188" y1="-192" x2="188" y2="0"/>
			</g>
			<g>
				<line class="st2" x1="0" y1="-4" x2="192" y2="-4"/>
				<line class="st2" x1="0" y1="-8" x2="192" y2="-8"/>
				<line class="st2" x1="0" y1="-12" x2="192" y2="-12"/>
				<line class="st2" x1="0" y1="-16" x2="192" y2="-16"/>
				<line class="st2" x1="0" y1="-20" x2="192" y2="-20"/>
				<line class="st2" x1="0" y1="-24" x2="192" y2="-24"/>
				<line class="st2" x1="0" y1="-28" x2="192" y2="-28"/>
				<line class="st2" x1="0" y1="-32" x2="192" y2="-32"/>
				<line class="st2" x1="0" y1="-36" x2="192" y2="-36"/>
				<line class="st2" x1="0" y1="-40" x2="192" y2="-40"/>
				<line class="st2" x1="0" y1="-44" x2="192" y2="-44"/>
				<line class="st2" x1="0" y1="-48" x2="192" y2="-48"/>
				<line class="st2" x1="0" y1="-52" x2="192" y2="-52"/>
				<line class="st2" x1="0" y1="-56" x2="192" y2="-56"/>
				<line class="st2" x1="0" y1="-60" x2="192" y2="-60"/>
				<line class="st2" x1="0" y1="-64" x2="192" y2="-64"/>
				<line class="st2" x1="0" y1="-68" x2="192" y2="-68"/>
				<line class="st2" x1="0" y1="-72" x2="192" y2="-72"/>
				<line class="st2" x1="0" y1="-76" x2="192" y2="-76"/>
				<line class="st2" x1="0" y1="-80" x2="192" y2="-80"/>
				<line class="st2" x1="0" y1="-84" x2="192" y2="-84"/>
				<line class="st2" x1="0" y1="-88" x2="192" y2="-88"/>
				<line class="st2" x1="0" y1="-92" x2="192" y2="-92"/>
				<line class="st2" x1="0" y1="-96" x2="192" y2="-96"/>
				<line class="st2" x1="0" y1="-100" x2="192" y2="-100"/>
				<line class="st2" x1="0" y1="-104" x2="192" y2="-104"/>
				<line class="st2" x1="0" y1="-108" x2="192" y2="-108"/>
				<line class="st2" x1="0" y1="-112" x2="192" y2="-112"/>
				<line class="st2" x1="0" y1="-116" x2="192" y2="-116"/>
				<line class="st2" x1="0" y1="-120" x2="192" y2="-120"/>
				<line class="st2" x1="0" y1="-124" x2="192" y2="-124"/>
				<line class="st2" x1="0" y1="-128" x2="192" y2="-128"/>
				<line class="st2" x1="0" y1="-132" x2="192" y2="-132"/>
				<line class="st2" x1="0" y1="-136" x2="192" y2="-136"/>
				<line class="st2" x1="0" y1="-140" x2="192" y2="-140"/>
				<line class="st2" x1="0" y1="-144" x2="192" y2="-144"/>
				<line class="st2" x1="0" y1="-148" x2="192" y2="-148"/>
				<line class="st2" x1="0" y1="-152" x2="192" y2="-152"/>
				<line class="st2" x1="0" y1="-156" x2="192" y2="-156"/>
				<line class="st2" x1="0" y1="-160" x2="192" y2="-160"/>
				<line class="st2" x1="0" y1="-164" x2="192" y2="-164"/>
				<line class="st2" x1="0" y1="-168" x2="192" y2="-168"/>
				<line class="st2" x1="0" y1="-172" x2="192" y2="-172"/>
				<line class="st2" x1="0" y1="-176" x2="192" y2="-176"/>
				<line class="st2" x1="0" y1="-180" x2="192" y2="-180"/>
				<line class="st2" x1="0" y1="-184" x2="192" y2="-184"/>
				<line class="st2" x1="0" y1="-188" x2="192" y2="-188"/>
			</g>
			<g>
				<path d="M191.75-0.25v-191.5H0.25v191.5H191.75 M192,0H0v-192h192V0L192,0z"/>
			</g>
		</g>
	</g>
</symbol>
<symbol  id="material_x5F_product_x5F_icon_x5F_keylines" viewBox="0 -192 192 192">
	<g class="st3">
		<defs>
			<path id="SVGID_00000136394914087201724890000011986467939078906796_" class="st3" d="M0,0v-192h192V0H0z"/>
		</defs>
		<clipPath id="SVGID_00000000902381905063497980000009104075699091262396_">
			<use xlink:href="#SVGID_00000136394914087201724890000011986467939078906796_"  style="overflow:visible;"/>
		</clipPath>
		<g style="clip-path:url(#SVGID_00000000902381905063497980000009104075699091262396_);">
			<line class="st2" x1="0.25" y1="-0.25" x2="191.75" y2="-191.75"/>
			<g>
				<path d="M191.75-0.25v-191.5H0.25v191.5H191.75 M192,0H0v-192h192V0L192,0z"/>
			</g>
			<line class="st2" x1="191.75" y1="-0.25" x2="0.25" y2="-191.75"/>
			<line class="st2" x1="124" y1="0" x2="124" y2="-192"/>
			<line class="st2" x1="68" y1="0" x2="68" y2="-192"/>
			<line class="st2" x1="192" y1="-124" x2="0" y2="-124"/>
			<line class="st2" x1="192" y1="-68" x2="0" y2="-68"/>
			<circle class="st2" cx="96" cy="-96" r="40"/>
			<line class="st2" x1="0" y1="-96" x2="192" y2="-96"/>
			<line class="st2" x1="96" y1="0" x2="96" y2="-192"/>
		</g>
		<g style="clip-path:url(#SVGID_00000000902381905063497980000009104075699091262396_);">
			<g>
				<path d="M96-8.25c48.39,0,87.75-39.36,87.75-87.75S144.39-183.75,96-183.75S8.25-144.39,8.25-96S47.61-8.25,96-8.25 M96-8
					C47.4-8,8-47.4,8-96s39.4-88,88-88c48.6,0,88,39.4,88,88S144.6-8,96-8L96-8z"/>
			</g>
		</g>
		<g style="clip-path:url(#SVGID_00000000902381905063497980000009104075699091262396_);">
			<g>
				<path d="M160-20.25c6.48,0,11.75-5.27,11.75-11.75v-128c0-6.48-5.27-11.75-11.75-11.75H32c-6.48,0-11.75,5.27-11.75,11.75v128
					c0,6.48,5.27,11.75,11.75,11.75H160 M160-20H32c-6.6,0-12-5.4-12-12v-128c0-6.6,5.4-12,12-12h128c6.6,0,12,5.4,12,12v128
					C172-25.4,166.6-20,160-20L160-20z"/>
			</g>
		</g>
		<g style="clip-path:url(#SVGID_00000000902381905063497980000009104075699091262396_);">
			<g>
				<path d="M148-8.25c6.48,0,11.75-5.27,11.75-11.75v-152c0-6.48-5.27-11.75-11.75-11.75H44c-6.48,0-11.75,5.27-11.75,11.75v152
					c0,6.48,5.27,11.75,11.75,11.75H148 M148-8H44c-6.6,0-12-5.4-12-12v-152c0-6.6,5.4-12,12-12h104c6.6,0,12,5.4,12,12v152
					C160-13.4,154.6-8,148-8L148-8z"/>
			</g>
		</g>
		<g style="clip-path:url(#SVGID_00000000902381905063497980000009104075699091262396_);">
			<g>
				<path d="M172-32.25c6.48,0,11.75-5.27,11.75-11.75v-104c0-6.48-5.27-11.75-11.75-11.75H20c-6.48,0-11.75,5.27-11.75,11.75v104
					c0,6.48,5.27,11.75,11.75,11.75H172 M172-32H20c-6.6,0-12-5.4-12-12v-104c0-6.6,5.4-12,12-12h152c6.6,0,12,5.4,12,12v104
					C184-37.4,178.6-32,172-32L172-32z"/>
			</g>
		</g>
	</g>
</symbol>
<symbol  id="material_x5F_product_x5F_icon_x5F_trim" viewBox="0 -192 192 192">
	<path class="st5" d="M0,0v-192h192V0H0z M188-188H4V-4h184V-188z"/>
</symbol>
<g id="background" class="st6">
	<rect x="0" y="0" class="st7" width="192" height="192"/>
</g>
<g id="border" class="st6">
	
		<use xlink:href="#material_x5F_product_x5F_icon_x5F_border"  width="192" height="192" y="-192" transform="matrix(1 0 0 -1 0 0)" style="display:inline;overflow:visible;"/>
</g>
<g id="grid" class="st6">
	
		<use xlink:href="#material_x5F_product_x5F_icon_x5F_grid"  width="192" height="192" id="XMLID_00000151508624742433881520000007007152995892123830_" x="0" y="-192" transform="matrix(1 0 0 -1 0 0)" style="display:inline;overflow:visible;opacity:0.15;"/>
</g>
<g id="keylines" class="st6">
	
		<use xlink:href="#material_x5F_product_x5F_icon_x5F_keylines"  width="192" height="192" x="0" y="-192" transform="matrix(1 0 0 -1 0 0)" style="display:inline;overflow:visible;"/>
</g>
<g id="trim_area" class="st6">
	
		<use xlink:href="#material_x5F_product_x5F_icon_x5F_trim"  width="192" height="192" id="XMLID_00000034811045224440447440000013454855919047749772_" y="-192" transform="matrix(1 0 0 -1 0 0)" style="display:inline;overflow:visible;"/>
</g>
<g id="icon">
	<g>
		<path class="st87" d="M187.84,131.05c-0.57-4.61-6.69-5.57-10.62-8.05c-7.76-4.9-7.12-16.84-13.35-23.58
			c-4.56-4.93-12.12-6.29-16.51-11.38c-3.99-4.64-4.85-11.84-9.98-15.18c-5.74-3.74-13.78-0.63-20.02-3.48
			c-5.48-2.51-8.02-8.83-12.59-12.76c-5.71-4.92-14.01-5.58-21.46-4.44C64.69,55.01,47.98,68.13,40.8,85.54
			c-1.8,4.37-3.09,9.07-6.05,12.75c-4.19,5.21-10.91,7.46-16.98,10.26c-6.07,2.79-12.35,7.12-13.53,13.7
			c-0.13,0.75-0.15,1.51-0.06,2.26c0.03,0.3,0.06,0.6,0.06,0.9v8.36c0,3.61,2.93,6.54,6.54,6.54h170.55c3.61,0,6.54-2.93,6.54-6.54
			v-2.72L187.84,131.05z"/>
		<path class="st87" d="M86.32,46.19c1.97-0.58,3.1-2.64,2.52-4.61c-0.58-1.97-2.64-3.1-4.61-2.52c-1.97,0.58-3.1,2.64-2.52,4.61
			C82.28,45.64,84.35,46.77,86.32,46.19z"/>
		<path class="st87" d="M65.05,42.11c1.97-0.58,3.1-2.64,2.52-4.61c-0.58-1.97-2.64-3.1-4.61-2.52c-1.97,0.58-3.1,2.64-2.52,4.61
			C61.01,41.56,63.08,42.69,65.05,42.11z"/>
		<path class="st87" d="M106.55,32.31c0.76,2.58-0.72,5.28-3.3,6.03c-2.58,0.76-5.28-0.72-6.03-3.3s0.72-5.28,3.3-6.03
			C103.09,28.26,105.79,29.73,106.55,32.31z"/>
		<path class="st87" d="M112.28,47.23c0.48,1.63-0.46,3.34-2.09,3.82c-1.63,0.48-3.34-0.46-3.82-2.09
			c-0.48-1.63,0.46-3.34,2.09-3.82C110.09,44.67,111.8,45.6,112.28,47.23z"/>
		<path class="st87" d="M124.69,60.05c0.48,1.63-0.46,3.34-2.09,3.82c-1.63,0.48-3.34-0.46-3.82-2.09
			c-0.48-1.63,0.46-3.34,2.09-3.82C122.5,57.48,124.21,58.42,124.69,60.05z"/>
		<path class="st87" d="M130.96,48.05c0.48,1.63-0.46,3.34-2.09,3.82c-1.63,0.48-3.34-0.46-3.82-2.09
			c-0.48-1.63,0.46-3.34,2.09-3.82C128.77,45.48,130.48,46.42,130.96,48.05z"/>
		<path class="st87" d="M55.87,52.05c0.48,1.63-0.46,3.34-2.09,3.82c-1.63,0.48-3.34-0.46-3.82-2.09c-0.48-1.63,0.46-3.34,2.09-3.82
			C53.68,49.48,55.4,50.42,55.87,52.05z"/>
	</g>
	<path class="st21" d="M72.68,79.62c2.05,0,3.72-1.66,3.72-3.72s-1.66-3.72-3.72-3.72c-2.05,0-3.72,1.66-3.72,3.72
		S70.63,79.62,72.68,79.62z"/>
	<path class="st21" d="M96,72c0,2.68-2.18,4.86-4.86,4.86c-2.68,0-4.86-2.18-4.86-4.86c0-2.68,2.18-4.86,4.86-4.86
		C93.82,67.14,96,69.32,96,72z"/>
	<path class="st21" d="M97.3,87.94c0,1.7-1.38,3.08-3.08,3.08c-1.7,0-3.08-1.38-3.08-3.08c0-1.7,1.38-3.08,3.08-3.08
		C95.92,84.86,97.3,86.23,97.3,87.94z"/>
</g>
</svg>
